<svg width="38" height="51" viewBox="0 0 38 51" fill="none" xmlns="http://www.w3.org/2000/svg">
<path d="M38 25.7724C38 19.6599 36.3754 15.797 32.211 11.9512C32.1044 11.7057 31.9683 11.4746 31.8057 11.2633C31.7489 11.1877 31.697 11.1084 31.6503 11.0259C31.5532 10.8494 31.4401 10.6824 31.3126 10.5272C31.166 10.3667 31.0635 10.1697 31.0154 9.95615C30.9635 9.69796 30.9566 9.43248 30.9951 9.17187C31.065 8.80188 31.0177 8.41885 30.86 8.07801C30.7639 7.91624 30.637 7.77568 30.4868 7.66462C30.3366 7.55356 30.166 7.47424 29.9852 7.43132C29.8855 7.40579 29.7838 7.38854 29.6813 7.37972C29.7454 5.92468 29.3942 4.86522 28.668 4.39053C28.4909 4.25759 28.2813 4.17671 28.0622 4.15669C27.843 4.13668 27.6227 4.1783 27.4251 4.27701C27.4083 3.98099 27.3279 3.69232 27.1896 3.4314C27.0513 3.17047 26.8584 2.94365 26.6247 2.76693C26.2899 2.54086 26.0493 2.19651 25.9492 1.80035C25.844 1.41967 25.6398 1.07501 25.3581 0.802801C25.0435 0.505403 24.6689 0.28147 24.2606 0.146611C23.8523 0.0117534 23.42 -0.0307845 22.9939 0.021963C22.4621 0.0841182 21.9698 0.337893 21.6057 0.737444C21.2771 0.591711 20.9286 0.497761 20.5722 0.458819C20.3734 0.278179 20.1308 0.154881 19.8696 0.101665C19.6083 0.0484496 19.3379 0.0672473 19.0861 0.156116C18.5283 0.335043 18.0201 0.646279 17.6034 1.06423L17.4278 1.21902L17.4008 1.23966C17.3552 1.16391 17.3135 1.08584 17.2758 1.00575C17.2048 0.791423 17.0626 0.608984 16.8739 0.489778C16.2322 0.180194 15.4216 0.734005 14.8778 1.35661C14.334 1.97922 14.1246 2.59838 13.8645 3.87455C13.5478 3.66097 13.2078 3.48551 12.8513 3.3517C12.6182 3.28382 12.4019 3.16661 12.2163 3.00772C11.7604 2.57774 11.3179 2.17185 10.6863 2.19249C10.3721 2.20866 10.0678 2.31038 9.80521 2.48704C9.54265 2.6637 9.33141 2.90884 9.19349 3.19691C9.07573 3.46852 9.06129 3.77501 9.15296 4.05686C9.21781 4.25091 9.21781 4.46135 9.15296 4.65539C9.10935 4.76374 9.0574 4.86841 8.9976 4.96842C8.69137 5.45106 8.52944 6.01393 8.53151 6.58857V6.64016C8.43718 6.58615 8.33757 6.54234 8.23429 6.50945C8.01813 6.4441 7.93031 6.30306 7.78508 6.04164C7.70077 5.83919 7.57712 5.6562 7.42156 5.50368C7.266 5.35117 7.08176 5.23228 6.87992 5.15417C5.83966 4.81018 5.29926 6.80872 5.24184 6.85343C5.16452 6.90703 5.07169 6.93248 4.9784 6.92567C4.76781 6.91894 4.56257 6.99394 4.40423 7.1355C3.96516 7.5414 4.17794 8.22936 4.49204 9.2613L4.59675 9.60528C5.05946 11.1291 5.1878 11.3252 5.52217 11.7208L5.66403 11.8928C5.68767 11.9203 5.71469 11.9444 5.74171 11.9719C1.97582 15.5906 0 20.3444 0 25.7655C0.00536425 30.8983 2.00976 35.8192 5.57337 39.4486C9.13698 43.078 13.9687 45.1193 19.0084 45.1248C19.8375 45.1245 20.6657 45.0682 21.4875 44.9562C21.7625 45.3177 21.9896 45.7144 22.163 46.1361C22.5751 47.1474 22.6392 47.8182 22.8385 49.8064C22.8723 50.1504 22.9094 50.5563 22.9567 51L24.1523 50.828C24.0037 49.7273 23.9463 48.9602 23.9024 48.3445C23.8686 47.5937 23.768 46.8477 23.6018 46.1155C23.6018 46.0536 23.4633 45.5754 23.2235 44.6432C27.4183 43.6619 31.1627 41.262 33.8463 37.8349C36.5298 34.4078 37.994 30.1558 38 25.7724ZM30.1642 8.44951C30.2464 8.65224 30.2629 8.87634 30.2115 9.08931C30.1633 9.43853 30.1758 9.79368 30.2487 10.1385C30.3229 10.4663 30.4761 10.7701 30.6945 11.0225C30.7905 11.1434 30.8764 11.2722 30.9512 11.4077C31.0161 11.5269 31.0883 11.6418 31.1674 11.7517C31.468 12.1679 31.8766 12.739 31.5051 14.7478C31.0964 16.9252 30.3804 17.3861 30.1541 17.5375L30.0494 17.6097C29.6441 17.9228 28.918 18.3321 27.263 18.2495C26.9375 18.2081 26.6205 18.114 26.3241 17.9709C26.1214 17.8849 25.9052 17.7989 25.6722 17.7232C25.8309 17.5891 25.9897 17.4515 26.145 17.3105C27.1636 16.4608 28.0131 15.4204 28.6478 14.2456C29.2017 13.1861 30.3365 10.9812 29.5158 8.63182C29.4651 8.48734 29.4043 8.35319 29.3469 8.21904C29.4955 8.18173 29.6508 8.18173 29.7995 8.21904C29.9403 8.24878 30.068 8.32349 30.1642 8.43231V8.44951ZM31.0694 21.5208C31.1127 21.7317 31.1046 21.9502 31.0458 22.1572C30.9512 22.4289 30.7621 22.5493 30.2352 22.8451C29.9616 23.0034 29.6205 23.1891 29.2219 23.4884C28.8484 23.7426 28.4918 24.0218 28.1546 24.3242C27.9439 24.5181 27.718 24.6941 27.4792 24.8505C26.2633 25.6348 24.3786 25.769 23.4262 25.1532C23.4948 25.1568 23.5636 25.1568 23.6322 25.1532C24.2927 25.1044 24.9293 24.8816 25.4797 24.5066C25.8951 24.2555 26.3882 24.3586 26.8307 24.4515C27.2731 24.5444 27.7291 24.6407 28.0297 24.2864C28.2018 24.079 28.3608 23.8607 28.5059 23.6328C28.6266 23.4146 28.7898 23.2238 28.9855 23.0722C29.1363 22.9764 29.3111 22.9274 29.4888 22.9311C29.7914 22.9308 30.0865 22.8346 30.3331 22.6559C30.6709 22.4014 30.6033 21.3866 30.9478 21.0151C30.9854 20.9645 31.0272 20.9173 31.0728 20.8741C31.0398 21.0779 31.0386 21.2857 31.0694 21.4898V21.5208ZM8.99422 24.197C8.97673 24.1437 8.94858 24.0947 8.91154 24.0531C8.8745 24.0115 8.82938 23.9781 8.77904 23.9552C8.7287 23.9323 8.67423 23.9202 8.61908 23.9198C8.56393 23.9194 8.50929 23.9307 8.45864 23.9529C8.40798 23.9751 8.3624 24.0078 8.32479 24.0488C8.28717 24.0899 8.25834 24.1385 8.24011 24.1915C8.22188 24.2445 8.21465 24.3008 8.21888 24.3568C8.22311 24.4128 8.23871 24.4673 8.26469 24.5169C8.36561 24.755 8.3984 25.0173 8.35926 25.2736C8.35926 25.308 8.33561 25.3424 8.32885 25.3803C7.91887 24.7056 7.43132 24.0832 6.87654 23.5262C7.35952 22.9862 7.50813 22.1503 7.64661 21.3557C7.68714 21.1149 7.73442 20.8638 7.78846 20.6161C8.65917 21.4761 9.70668 22.1282 10.8552 22.5252C11.4782 22.7107 12.1192 22.826 12.7669 22.8692C12.6014 22.9242 12.4663 22.9793 12.3447 23.0309C12.096 23.1398 11.8368 23.2216 11.5712 23.2751C11.09 23.3734 10.5995 23.4172 10.1088 23.4058C9.6866 23.4058 9.28469 23.4058 9.19349 23.8186C9.17915 23.8883 9.17893 23.9603 9.19287 24.0301C9.20681 24.0999 9.2346 24.166 9.27455 24.2245C9.51836 24.5034 9.83663 24.7039 10.1905 24.8017C10.5444 24.8994 10.9185 24.8901 11.2673 24.7749C11.3899 24.7167 11.5291 24.7057 11.659 24.7439C11.779 24.8035 11.8922 24.8762 11.9968 24.9606C12.4324 25.3192 12.9704 25.5244 13.5302 25.5454C13.696 25.5447 13.8613 25.5263 14.0233 25.4903H14.0706L13.8544 25.6314L13.7666 25.6864C12.4899 26.5051 12.1488 26.7184 12.142 27.3134C12.142 27.4889 12.142 28.0014 13.7531 28.5415C13.8959 28.594 14.0472 28.6185 14.1989 28.6137C14.3982 28.6137 14.7089 28.5896 15.2561 28.5346C15.4451 28.5168 15.6325 28.4846 15.8167 28.4383C15.9721 28.4004 16.1545 28.3523 16.5902 28.2869C17.0731 28.2147 17.3467 28.1906 17.5629 28.1734C17.7617 28.1633 17.9593 28.1369 18.1539 28.0943C18.9729 27.8737 19.706 27.4031 20.2547 26.7459C20.329 26.6633 20.4 26.5808 20.4675 26.4948C20.7361 26.4817 21.0003 26.42 21.2477 26.3125C21.3722 26.8974 21.4222 27.4963 21.3963 28.0943C21.3606 29.236 21.2477 30.3738 21.0586 31.4997L20.9708 32.0707C20.6709 34.3071 20.6109 36.57 20.7917 38.8196V38.9675C20.899 40.1807 21.1035 41.3829 21.4031 42.5621C21.4046 42.5827 21.4046 42.6035 21.4031 42.6241L21.3321 42.514C20.5418 41.3341 19.6941 40.168 18.8767 39.0398C18.0931 37.9631 17.2859 36.8521 16.5327 35.7341C15.739 34.5577 14.9149 33.4398 14.0942 32.4216C14.2073 32.2582 14.2982 32.08 14.3644 31.8918C14.4948 31.4709 14.4948 31.0194 14.3644 30.5985C14.3489 30.5479 14.3237 30.5009 14.2904 30.4602C14.257 30.4195 14.2161 30.3859 14.17 30.3613C14.1239 30.3367 14.0735 30.3216 14.0217 30.3169C13.9698 30.3121 13.9176 30.3178 13.8679 30.3336C13.8182 30.3494 13.7721 30.375 13.7322 30.409C13.6922 30.443 13.6592 30.4846 13.6351 30.5316C13.6109 30.5785 13.5961 30.6299 13.5914 30.6827C13.5867 30.7355 13.5923 30.7887 13.6079 30.8393C13.6885 31.1001 13.6885 31.3799 13.6079 31.6407C13.6079 31.6854 13.5707 31.7267 13.5538 31.768C13.3241 31.4997 13.0979 31.2348 12.8783 30.9837C12.5226 30.587 12.1589 30.1983 11.7874 29.8176C11.5767 29.5665 11.3511 29.3287 11.1119 29.1056C11.0876 29.0787 11.0617 29.0534 11.0342 29.0299L10.9836 28.9921C10.7089 28.7677 10.4026 28.5868 10.075 28.4555C9.72802 27.6623 9.32152 26.8975 8.85912 26.168C9.04333 25.8736 9.15328 25.5375 9.1792 25.1894C9.20513 24.8414 9.14623 24.4922 9.00773 24.1729L8.99422 24.197ZM6.31588 21.7891C6.27401 21.8891 6.19512 21.9682 6.09634 22.0093C6.03872 22.0258 5.97805 22.0282 5.91934 22.0163C5.86062 22.0043 5.80553 21.9783 5.75859 21.9405C5.63669 21.8476 5.53445 21.7306 5.458 21.5965C5.40963 21.4843 5.32344 21.3935 5.21501 21.3405C5.10659 21.2875 4.98311 21.2758 4.86694 21.3075C4.66767 21.3798 4.42112 21.8097 4.27926 22.2741C4.25562 22.2741 3.66794 22.5252 3.42814 21.7203C3.30993 21.3213 3.42814 21.0805 3.68145 20.6884C3.81954 20.4926 3.93301 20.28 4.0192 20.0554C4.25744 20.0777 4.49761 20.0637 4.73184 20.0142C5.34654 19.8731 5.74509 19.9385 6.01529 20.2309C6.19451 20.4315 6.31708 20.6778 6.37 20.9437C6.42292 21.2096 6.40422 21.485 6.31588 21.7409V21.7891ZM10.0108 7.73403C10.1575 7.60182 10.3121 7.4789 10.4736 7.36597C10.5681 7.29373 10.6627 7.22493 10.7573 7.14582C10.7568 7.61221 10.7218 8.0779 10.6526 8.53894C10.5733 8.85775 10.4408 9.16028 10.2608 9.43329C9.95342 9.92519 9.76091 10.3345 9.84872 11.5522C9.91524 12.2166 10.0523 12.8717 10.2574 13.506C9.67985 12.6495 9.31846 12.0372 9.19349 11.3114C9.18336 11.2874 8.77469 8.82101 10.0108 7.68587V7.73403ZM17.8972 3.66473C17.779 2.64998 18.4782 1.78659 19.7684 1.36005C19.9047 1.31872 20.0452 1.29333 20.1872 1.28437C20.2458 1.39342 20.2922 1.5088 20.3257 1.62836C20.3944 2.05111 20.3281 2.48516 20.1365 2.86669H19.9372C19.13 2.89077 18.6943 3.49274 18.2721 4.0775C18.1492 4.2386 18.0364 4.40749 17.9344 4.58316C17.9449 4.26047 17.9325 3.93743 17.8972 3.61657V3.66473ZM28.7525 8.9242C28.8283 9.13777 28.8859 9.35758 28.9247 9.58121C28.5295 8.77973 27.7696 8.37039 27.2022 8.06769C26.9881 7.96845 26.7844 7.84744 26.5943 7.70651C26.3957 7.53999 26.2371 7.32947 26.1305 7.09101C26.024 6.85255 25.9724 6.59246 25.9796 6.33058C26.0606 6.33058 26.1417 6.33058 26.2261 6.3581C27.719 6.55761 28.4519 8.02297 28.7525 8.87604V8.9242ZM22.3521 18.8997C22.1001 18.2422 21.6495 17.6833 21.0653 17.3036C21.1971 17.15 21.3641 17.032 21.5515 16.96C21.7389 16.888 21.9408 16.8642 22.1394 16.8908C22.387 16.9165 22.6362 16.8623 22.852 16.736L23.1898 16.4574C23.4883 16.1759 23.8432 15.9635 24.23 15.8348C24.7029 15.7247 25.5303 15.9483 26.1349 16.1788C25.9458 16.3576 25.7634 16.5228 25.5979 16.6707C24.6317 17.564 23.5372 18.3018 22.3521 18.8584V18.8997ZM15.6985 36.4358C15.4418 36.3464 15.175 36.2501 14.9386 36.1503L14.8271 36.1022C14.0132 35.7582 12.1251 34.9842 10.7978 30.4643C10.8991 30.3928 10.992 30.3097 11.0747 30.2166C11.2402 30.3852 11.4125 30.5606 11.5679 30.7292C13.046 32.5532 14.4249 34.4583 15.6985 36.4358ZM21.8117 24.252C21.6057 24.8265 21.4537 25.2427 21.089 25.4628C21.5179 24.5277 21.7206 23.5015 21.68 22.4702C21.7838 22.4052 21.882 22.3315 21.9739 22.25C22.1866 22.6766 21.9874 23.7704 21.8117 24.2589V24.252ZM19.5184 26.0545C19.5525 26.112 19.5946 26.1642 19.6434 26.2093C19.2101 26.7244 18.6346 27.0948 17.9918 27.2722C17.8346 27.3034 17.6755 27.3241 17.5156 27.3341C17.2961 27.3341 16.9955 27.3754 16.4855 27.4545C16.0295 27.5233 15.4114 27.6712 15.1919 27.6918C14.1786 27.795 14.128 27.7744 13.9861 27.7297C13.6233 27.6275 13.2805 27.4622 12.9729 27.2412C14.128 26.4122 17.4616 23.8874 17.5629 23.7808C17.5629 23.7808 18.1978 23.3749 18.4748 23.2373C18.7034 23.1278 18.9518 23.068 19.2043 23.0618C19.3529 23.0618 19.4914 23.0618 19.6231 23.0618C19.8689 23.0734 20.1149 23.0467 20.3527 22.9827C20.4641 22.9621 20.5688 22.938 20.6702 22.9139C20.5612 23.2372 20.4349 23.5541 20.2919 23.8633C20.1355 24.2036 19.9619 24.5354 19.7717 24.8574C19.4948 25.3115 19.282 25.6795 19.5184 26.0614V26.0545ZM7.18051 14.8407C7.22716 14.5403 7.24975 14.2366 7.24806 13.9326C7.24806 13.7468 7.27508 13.5886 7.28184 13.4579C7.99113 13.7075 8.64939 14.0876 9.22389 14.5793C9.31651 14.6576 9.40448 14.7414 9.48733 14.8304L9.62581 14.9852L9.81832 15.2087C10.0707 15.5397 10.3687 15.8316 10.7032 16.0756C11.1815 16.4223 11.6876 16.7272 12.2163 16.9871C12.169 17.0972 12.1349 17.2127 12.115 17.3311C12.0272 17.768 12.1353 18.0913 12.3413 18.6761L12.419 18.9065C12.5183 19.1749 12.5698 19.4591 12.571 19.7459C12.5724 19.9977 12.6146 20.2476 12.6959 20.4854C12.7453 20.6218 12.8052 20.7541 12.8749 20.881C12.2501 20.9636 11.4598 20.9876 10.2 20.3306L10.1189 20.2893C8.04852 19.2264 7.03866 17.5994 7.10959 15.453C7.13323 15.2363 7.15687 15.0264 7.18051 14.8407ZM18.8497 11.4009C18.8835 11.4009 19.6839 11.5625 19.8798 12.0888C19.9643 12.3055 19.8461 12.6426 19.711 13.0313C19.6214 13.2688 19.5447 13.5111 19.4813 13.7571C19.2989 14.4864 19.1435 15.7041 19.6265 16.7601L19.3462 16.7051C19.1117 16.6676 18.8742 16.6526 18.6369 16.6603C18.5221 16.6772 18.405 16.6605 18.2992 16.6122C18.0669 16.4944 17.8802 16.3006 17.7689 16.0618C17.5935 15.7196 17.3187 15.4409 16.982 15.2638C16.7793 15.1675 16.4551 15.0849 15.7357 15.2156C15.9247 14.888 16.053 14.5277 16.1139 14.1527C16.4078 12.8387 16.5057 12.7183 16.83 12.3193L16.8941 12.2471C17.1269 11.954 17.4273 11.7243 17.7686 11.5784C18.1099 11.4325 18.4813 11.3751 18.8497 11.4112V11.4009ZM25.1183 6.34778C25.0474 7.10454 24.7974 8.20528 23.9463 8.41167C23.601 8.51472 23.2802 8.6892 23.004 8.9242C23.0509 8.66933 23.0847 8.41214 23.1053 8.15368C23.1082 8.00424 23.1403 7.85688 23.1999 7.72027C23.4034 7.36402 23.6803 7.05689 24.0115 6.81997C24.3426 6.58305 24.7202 6.42196 25.1183 6.34778ZM22.0786 14.1527C21.9836 13.8014 21.9482 13.4361 21.9739 13.0726C21.9739 12.9075 22.1562 12.2883 22.3859 11.4249C22.4197 11.2942 22.4535 11.1773 22.4805 11.081C22.8182 10.1109 23.5815 9.36106 24.1692 9.22346C24.5095 9.12208 24.8205 8.93789 25.0752 8.68679C25.33 8.43569 25.521 8.12523 25.6317 7.78218C25.766 7.97179 25.9238 8.14291 26.1011 8.29128C26.3347 8.46824 26.5847 8.62147 26.8476 8.74877C27.4082 9.04459 28.0432 9.3817 28.2931 10.0387C28.6039 10.8505 28.1344 11.4662 27.5839 12.082C27.4813 12.1905 27.3854 12.3054 27.2968 12.4259C26.9299 12.9502 26.7478 13.5854 26.78 14.2284C26.7822 14.6593 26.7219 15.0882 26.601 15.5011C26.0032 15.2569 24.8751 14.8648 24.0713 15.0505C23.5675 15.2004 23.1049 15.4677 22.7203 15.8313L22.4163 16.0756C22.3275 16.0819 22.2383 16.0819 22.1495 16.0756H21.8962C22.0208 15.8356 22.1139 15.58 22.1731 15.3154C22.2273 14.9255 22.195 14.5282 22.0786 14.1527ZM20.6533 22.0643C21.0788 21.3282 21.4098 20.0004 20.9572 19.2024C20.839 18.996 20.481 18.3665 18.8429 17.565L18.6403 17.4653C18.8312 17.4576 19.0224 17.4692 19.2111 17.4997C19.7135 17.5766 20.1977 17.7468 20.6398 18.0019C21.6969 18.6348 22.1968 20.3134 21.653 21.3866C21.6159 21.483 21.4031 21.8373 20.6533 22.0643ZM16.857 22.1606C16.3245 22.139 15.7998 22.0225 15.3067 21.8166C14.6312 21.5002 13.7396 21.0633 13.4457 20.2274C13.3907 20.0684 13.3632 19.9007 13.3647 19.7321C13.3601 19.3645 13.2938 19.0003 13.1688 18.6554L13.0877 18.4215C13.0303 18.2461 12.983 18.1119 12.9492 17.9916C13.2078 18.0193 13.4692 17.9914 13.7165 17.9097C13.9638 17.8279 14.1915 17.6941 14.3847 17.5169C14.5979 17.3154 14.7433 17.0506 14.8001 16.7601L14.8237 16.6707C14.9284 16.65 15.3641 16.6707 16.8908 17.8024L17.0157 17.8987C17.6917 18.4824 18.5478 18.8051 19.434 18.8102C19.7672 19.0062 20.0533 19.2753 20.2716 19.5979C20.5553 20.0967 20.248 21.2456 19.9102 21.7478C19.7245 22.0161 18.3228 22.2363 17.0157 22.1606C16.9629 22.157 16.9098 22.157 16.857 22.1606ZM13.4795 17.0009C13.5615 16.9626 13.6415 16.9201 13.7193 16.8736C13.8206 16.822 13.9051 16.7842 13.976 16.7532C13.9529 16.8216 13.9134 16.8831 13.8612 16.9321C13.6752 17.1008 13.4347 17.1939 13.1857 17.1935C13.276 17.1142 13.3746 17.045 13.4795 16.9871V17.0009ZM15.7154 16.0481C16.0151 15.9533 16.3336 15.9379 16.6408 16.0033C16.8358 16.1127 16.9927 16.281 17.09 16.4849C17.1474 16.5778 17.2116 16.6775 17.2859 16.7773C16.776 16.5009 16.2517 16.2528 15.7154 16.0343V16.0481ZM9.76091 21.0186L9.83521 21.0564C10.5916 21.4883 11.4406 21.7245 12.3075 21.7444C12.612 21.7407 12.9158 21.7131 13.2161 21.6618L13.4795 21.6309C13.6979 21.8237 13.9343 21.9942 14.1854 22.14C13.148 22.1397 12.115 22.0033 11.1119 21.7341C10.3247 21.4598 9.58828 21.0528 8.93343 20.5301C9.19896 20.7104 9.47533 20.8735 9.76091 21.0186ZM16.9347 22.9758H17.2927C17.009 23.1582 16.7118 23.368 16.401 23.6019C15.6126 24.0739 14.7635 24.4316 13.8781 24.6648C13.6274 24.713 13.3692 24.7015 13.1237 24.6311C12.8782 24.5606 12.652 24.4333 12.4629 24.2589C12.3162 24.148 12.1589 24.0523 11.9934 23.9734C12.2133 23.9127 12.4288 23.8369 12.6385 23.7464C12.9077 23.6304 13.187 23.5405 13.4728 23.4781C15.1683 23.1238 16.4584 22.9311 16.9347 22.9758ZM27.5602 14.2422C27.5235 13.7525 27.6574 13.2653 27.9385 12.8662C27.979 12.8078 28.0668 12.7114 28.158 12.6048C28.3915 12.3581 28.6018 12.0898 28.7862 11.8033C28.5712 12.506 28.2849 13.1838 27.9317 13.8259C27.8101 14.0564 27.6818 14.2697 27.5501 14.4726C27.5535 14.4004 27.5568 14.3178 27.5602 14.2422ZM22.494 7.40036C22.3994 7.61757 22.3455 7.85092 22.3353 8.08833C22.2959 8.54218 22.2202 8.992 22.109 9.43329C22.0448 9.7016 22.0043 9.84263 21.9333 10.1041C21.8624 10.3655 21.778 10.6441 21.6294 11.2014C21.4458 11.7907 21.3003 12.3917 21.1937 13.0004C21.1603 13.4479 21.2014 13.898 21.3153 14.3316C21.4016 14.6034 21.4235 14.8922 21.3794 15.1743C21.2076 15.7371 20.9119 16.2524 20.5148 16.681C19.9271 15.8038 20.0926 14.6171 20.2615 13.9291C20.3189 13.7021 20.3932 13.4854 20.4675 13.279C20.6499 12.7562 20.8255 12.2471 20.6296 11.7655C20.2919 10.8746 19.2178 10.6338 19.0051 10.5925C18.5149 10.5117 18.0123 10.575 17.5561 10.7748C17.3652 10.1773 17.3075 9.54388 17.3873 8.92076V8.77285C17.4727 8.28152 17.6214 7.80384 17.8297 7.35221C17.9215 7.13904 18.0015 6.92085 18.0695 6.69864C18.1168 6.51289 18.1573 6.35466 18.1978 6.17579C18.2981 5.55305 18.5424 4.96353 18.9105 4.45588C19.3496 3.85392 19.586 3.58561 19.9609 3.57529C20.1267 3.56378 20.2927 3.5953 20.4433 3.66688C20.594 3.73847 20.7243 3.84779 20.8221 3.98463C21.1109 4.30541 21.4728 4.54879 21.8759 4.69323C22.1997 4.76719 22.538 4.73838 22.8453 4.61067C23.4194 4.43524 23.7943 4.35613 24.2368 4.87898C24.4002 5.10271 24.5038 5.36585 24.5374 5.64262C24.0954 5.77723 23.6851 6.00265 23.3319 6.30496C22.9787 6.60727 22.6901 6.98007 22.4839 7.40036H22.494ZM16.6408 10.3999C16.6942 10.6693 16.7653 10.9348 16.8536 11.1945C16.6443 11.3447 16.4548 11.5216 16.2896 11.7208L16.2288 11.7964C15.8133 12.3021 15.6681 12.5291 15.3473 13.967C15.1581 14.796 15.1075 14.937 14.4083 15.0402C13.26 15.2053 12.7939 15.5734 12.5676 15.9621C11.2166 14.6033 10.7302 12.5222 10.6492 11.4456C10.5681 10.3689 10.7201 10.1694 10.9396 9.81855C11.1674 9.47592 11.3343 9.09519 11.4328 8.69373C11.5099 8.25195 11.5506 7.80435 11.5543 7.35565C11.7856 7.65263 12.0983 7.87293 12.4528 7.98857C13.2566 8.22936 13.8848 7.98857 14.817 7.07358C15.0596 7.52093 15.2209 8.00917 15.2932 8.51486C15.3675 9.32322 15.4722 9.96303 16.07 10.2657C16.2449 10.352 16.4364 10.3978 16.6307 10.3999H16.6408ZM14.2766 6.48193C13.4153 7.33845 13.0742 7.33157 12.6757 7.21117C12.2771 7.09078 11.963 6.57825 11.7705 6.24459C11.7266 6.16273 11.6781 6.08349 11.6253 6.00724C11.8347 5.66326 11.8988 5.60478 12.061 5.60478C12.1415 5.64405 12.2174 5.69252 12.2873 5.74925C12.688 6.05543 13.1488 6.27013 13.6382 6.37874C13.8448 6.42906 14.0548 6.46355 14.2665 6.48193H14.2766ZM7.02853 30.024C6.31926 29.6422 5.91396 28.8958 5.95111 28.6481C6.32113 28.6034 6.69563 28.615 7.0623 28.6825C6.95866 28.8893 6.90183 29.1172 6.89599 29.3494C6.89014 29.5815 6.93543 29.812 7.02853 30.024ZM7.74793 29.1125C7.92596 28.9609 8.15483 28.8857 8.38628 28.9026C8.46535 28.9036 8.5443 28.9093 8.6227 28.9198C8.82758 28.95 9.0244 29.0218 9.2014 29.1312C9.37839 29.2405 9.53193 29.3851 9.65283 29.5562C9.72376 29.7523 9.78455 29.9311 9.83521 30.0963C9.74165 30.1415 9.64582 30.1817 9.54812 30.2166C9.06066 30.3631 8.5475 30.3983 8.04515 30.3198C7.74118 29.8451 7.61621 29.2638 7.74793 29.1125ZM9.8217 30.9768C9.74307 31.0423 9.65231 31.0909 9.55482 31.1199C9.45734 31.1489 9.35513 31.1575 9.25429 31.1454H9.19349C9.40835 31.113 9.61904 31.0564 9.8217 30.9768ZM30.9951 19.9488C30.6625 20.1046 30.3878 20.3651 30.2115 20.6918C30.0944 20.9773 30.0182 21.2785 29.9852 21.5862C29.9447 21.8682 29.9244 21.9508 29.8603 21.9989C29.7314 22.0858 29.579 22.1291 29.4246 22.1228C29.115 22.1266 28.8124 22.217 28.5498 22.3842C28.2601 22.5941 28.0182 22.8651 27.8405 23.1788C27.7195 23.3688 27.5875 23.5515 27.4454 23.7257C27.2901 23.7193 27.136 23.6951 26.986 23.6535C26.4659 23.5468 25.7566 23.3955 25.0744 23.8083C24.3145 24.2658 23.6862 24.4412 23.3417 24.2864C23.2742 24.2555 23.0682 24.1626 22.9668 23.6844C23.0116 23.0183 22.8956 22.351 22.6291 21.7409C22.5784 21.6316 22.542 21.516 22.521 21.397C22.702 20.8255 22.73 20.2151 22.6021 19.6289C23.1404 19.3867 23.6608 19.1051 24.1591 18.7861C24.3415 18.9444 24.5982 19.1301 24.9562 19.4053C25.8512 20.0933 27.0907 19.8387 28.6714 19.278C29.2821 19.0608 29.8694 18.7807 30.4243 18.4422C30.9748 18.1188 31.0998 18.0535 31.4376 18.2048C31.6489 18.314 31.8197 18.4903 31.9239 18.707C31.8732 19.4122 31.4409 19.6771 30.9951 19.9488ZM24.8853 18.3493C25.2734 18.4129 25.6516 18.5286 26.01 18.6933C26.2662 18.8044 26.5304 18.8952 26.8003 18.965C26.1687 19.0648 25.7397 18.996 25.4223 18.7586L24.8853 18.3493ZM27.7358 5.05785C27.8405 4.89618 28.0128 4.89618 28.2458 5.05785C28.7153 5.36399 28.9484 6.21363 28.8977 7.35565C28.5256 6.74658 28.0102 6.24173 27.3981 5.88685C27.4875 5.60131 27.6005 5.324 27.7358 5.05785ZM23.1121 0.802801C23.4248 0.764765 23.7419 0.796777 24.0411 0.896597C24.3404 0.996417 24.6147 1.16163 24.8447 1.38069C25.0289 1.57091 25.1586 1.80881 25.2196 2.06865C25.3712 2.62853 25.7121 3.11587 26.1822 3.44458C26.4963 3.66473 26.807 4.22886 26.5943 5.60134C26.5132 5.5807 26.4355 5.55318 26.3511 5.53942C26.219 5.51984 26.0859 5.50721 25.9525 5.50159C25.8951 3.92615 25.6688 2.70158 24.1253 2.2888C23.7294 2.21222 23.3197 2.28954 22.977 2.50551C22.8799 2.0097 22.6455 1.55255 22.3015 1.18806C22.5291 0.981995 22.8108 0.848096 23.1121 0.802801ZM21.474 1.54236C22.0651 1.81755 22.2035 2.61558 22.2677 3.00084C22.3049 3.22099 22.3454 3.45146 22.6055 3.53057L22.8419 3.59249L23.0074 3.43426C23.1526 3.30355 23.639 2.95956 23.9328 3.04212C24.6995 3.24507 25.0102 3.65441 25.1251 4.83426C25.0552 4.67167 24.9631 4.51996 24.8515 4.38365C24.051 3.4377 23.1965 3.69568 22.6291 3.86424C22.4737 3.92844 22.3071 3.96003 22.1394 3.95711C21.8497 3.85252 21.5915 3.67362 21.3896 3.4377C21.2467 3.28519 21.0869 3.15013 20.9133 3.03524C21.1478 2.51958 21.2152 1.94137 21.1059 1.38413C21.221 1.42444 21.3338 1.47153 21.4436 1.52516L21.474 1.54236ZM15.4756 1.88634C15.9045 1.39789 16.3166 1.19838 16.4888 1.19838C16.5125 1.23966 16.5395 1.30157 16.5631 1.34629C16.6881 1.60772 16.8604 1.96546 17.2386 2.03425C17.3169 2.04792 17.3968 2.04792 17.4751 2.03425C17.1692 2.52996 17.0415 3.1183 17.1137 3.69912C17.2724 5.05441 17.0292 5.51191 16.7219 6.10699C16.4835 6.49286 16.3227 6.92315 16.249 7.37285C16.0951 8.05528 16.1493 8.76931 16.4044 9.41953C16.4314 9.47457 16.4551 9.52273 16.4753 9.57089L16.4179 9.54681C16.2524 9.46425 16.1545 9.26818 16.0802 8.44263C15.9662 7.55725 15.6091 6.72263 15.05 6.03476C15.0408 6.02465 15.0306 6.01543 15.0196 6.00724C15.0792 5.96073 15.1286 5.90217 15.1649 5.83525C15.2898 5.60822 15.3709 5.13009 14.5975 4.42492C14.8778 2.87701 14.9859 2.41951 15.4756 1.87258V1.88634ZM9.68998 5.33648C9.78353 5.18616 9.86055 5.02582 9.91965 4.85834C10.03 4.52458 10.0371 4.16438 9.93991 3.8264C9.91496 3.77262 9.90201 3.71388 9.90201 3.65441C9.90201 3.59493 9.91496 3.53619 9.93991 3.48242C10.0152 3.3332 10.1274 3.20652 10.2654 3.11485C10.4034 3.02317 10.5624 2.96966 10.7269 2.95956C11.0275 2.95956 11.2808 3.16939 11.6962 3.56153C11.9484 3.80243 12.2476 3.98645 12.5743 4.10158C12.9919 4.25294 13.3829 4.47125 13.7328 4.74827C13.6963 5.04547 13.7469 5.34703 13.8781 5.6151H13.8173C13.4242 5.52841 13.0543 5.35589 12.7331 5.10945C12.5443 4.94167 12.3074 4.84034 12.0576 4.8205C11.4091 4.8205 11.1389 5.27112 10.9025 5.67014C10.862 5.73893 10.8214 5.81117 10.7741 5.88341C10.5832 6.20441 10.3234 6.47724 10.0142 6.68144C9.84816 6.80044 9.68809 6.92788 9.53462 7.06326C9.43161 6.91946 9.36228 6.75355 9.33197 6.57825C9.32809 6.13737 9.45269 5.70523 9.68998 5.33648ZM5.35668 9.35418L5.2486 9.0102C5.09342 8.60161 4.99344 8.17345 4.95138 7.73747H5.02568C5.27686 7.73172 5.5205 7.64901 5.72482 7.50012C6.14701 7.19741 6.57932 5.95564 6.62998 5.92812C6.87744 6.03739 7.07776 6.23408 7.19402 6.48193C7.26169 6.66588 7.37047 6.83127 7.51175 6.965C7.65302 7.09873 7.82292 7.19715 8.008 7.25245C8.25642 7.37308 8.47732 7.54532 8.65647 7.7581L8.84223 7.93697C8.07217 9.41609 8.38627 11.3561 8.40316 11.4525C8.55076 12.1816 8.84768 12.8708 9.27455 13.4751C8.59723 12.8544 7.84606 12.3228 7.03866 11.8928C6.76096 11.7632 6.50552 11.589 6.2821 11.3768C6.22469 11.3011 6.17065 11.2426 6.12336 11.1876C5.89032 10.9055 5.79237 10.7886 5.35668 9.35418ZM0.776816 25.7724C0.776816 20.5301 2.71887 15.938 6.39356 12.4638L6.69078 12.6358L6.66376 12.6564C6.60546 12.7121 6.56075 12.781 6.53319 12.8574C6.50563 12.9338 6.49599 13.0158 6.50502 13.0967C6.50502 13.3272 6.47125 13.8603 6.36317 14.7856C6.33952 14.992 6.32264 15.2087 6.31588 15.4289C6.20105 16.5984 6.16052 18.1807 6.89681 19.4707C7.01155 19.6669 7.14024 19.8543 7.28184 20.0314C7.25864 20.0338 7.2359 20.0396 7.21429 20.0486C7.12345 20.0908 7.03922 20.1464 6.96436 20.2137C6.86177 20.0023 6.72601 19.8095 6.56244 19.6427C5.84303 18.91 4.8737 19.137 4.53595 19.2127C4.17163 19.2278 3.8067 19.2117 3.44503 19.1645C3.32194 19.5323 3.17642 19.8919 3.00933 20.2412C2.70764 20.6412 2.56531 21.1424 2.61079 21.6446C2.54563 21.5992 2.46852 21.5749 2.38956 21.5749C2.31061 21.5749 2.2335 21.5992 2.16834 21.6446L1.92516 21.8235L2.02311 22.1675C2.15483 22.625 2.36086 23.3886 3.05999 23.5812C3.32421 23.6292 3.56338 23.7705 3.73549 23.9803C3.84855 24.1103 3.97671 24.2258 4.11715 24.3242C4.41762 24.5256 4.77076 24.6299 5.13039 24.6235C5.60814 24.6072 6.07737 24.49 6.50839 24.2795C7.4676 25.1257 8.67336 27.4029 9.0415 28.1528C8.58609 28.063 8.126 27.9998 7.6635 27.9636L7.34939 27.9326C6.24495 27.8053 5.57959 27.7297 5.27224 28.2491C5.20366 28.3945 5.16805 28.5538 5.16805 28.7152C5.16805 28.8765 5.20366 29.0358 5.27224 29.1813C5.43377 29.5827 5.67537 29.9456 5.98176 30.247C6.28815 30.5484 6.65265 30.7817 7.05217 30.9321C7.23321 30.9936 7.41831 31.0419 7.60607 31.0766C7.80376 31.325 8.04803 31.5307 8.32464 31.6819C8.60124 31.8331 8.90464 31.9267 9.21713 31.9572H9.34885C9.68614 31.9612 10.0152 31.8511 10.2844 31.6442C10.3351 31.8024 10.3925 31.9675 10.4634 32.1498C10.5951 32.4938 10.8012 32.9926 11.0646 33.5567C10.6236 33.814 10.1324 33.969 9.62581 34.0108C8.77023 34.0676 7.92267 33.8128 7.23456 33.2918C7.19264 33.2604 7.14507 33.2378 7.09455 33.2251C7.04403 33.2124 6.99155 33.21 6.94011 33.218C6.88868 33.226 6.83929 33.2442 6.79477 33.2716C6.75025 33.2991 6.71148 33.3352 6.68065 33.3778C6.64982 33.4205 6.62756 33.469 6.61512 33.5204C6.60268 33.5719 6.60031 33.6253 6.60815 33.6777C6.61599 33.7301 6.63389 33.7804 6.66081 33.8257C6.68774 33.8711 6.72317 33.9106 6.76509 33.942C7.51781 34.5113 8.42822 34.8231 9.36574 34.8329C9.47044 34.8329 9.57515 34.8329 9.6866 34.8329C10.3057 34.7805 10.9061 34.5916 11.4463 34.2791C11.8262 34.9379 12.287 35.5448 12.8175 36.085C13.4469 36.7258 14.2219 37.1985 15.0737 37.4609C15.8396 37.7016 16.5434 38.1129 17.1339 38.6648C17.4447 38.9503 17.5156 39.0535 18.1708 40.0408C18.5086 40.5327 18.9578 41.2344 19.6502 42.2663C20.2142 43.1056 20.6364 43.7179 20.9572 44.1857C20.3045 44.259 19.6483 44.2957 18.9916 44.2958C14.1673 44.2895 9.54202 42.3367 6.12822 38.8651C2.71442 35.3934 0.790212 30.6857 0.776816 25.7724ZM23.0006 43.8658L22.6291 42.4245C22.2103 40.7838 22.0313 39.1808 21.9536 36.2879C21.9052 35.1382 21.964 33.9865 22.1292 32.8481C22.1495 32.683 22.1698 32.5041 22.1934 32.3425C22.2508 31.8402 22.315 31.4137 22.3758 31.0009C22.4906 30.227 22.5987 29.4943 22.6764 28.3557C22.6933 28.1287 22.7135 27.8707 22.7338 27.5989C22.7777 27.0073 22.8284 26.3469 22.8588 25.7346H22.8757C23.5111 26.1592 24.261 26.3709 25.0204 26.34C26.0358 26.3423 27.0319 26.0577 27.898 25.5179C28.1675 25.3417 28.4227 25.1438 28.6613 24.9262C28.9814 24.6431 29.32 24.3822 29.6745 24.1454C30.0629 23.8771 30.3905 23.6879 30.6506 23.5331C31.2113 23.2097 31.6166 22.9724 31.8192 22.4083C31.9198 22.0824 31.9418 21.7367 31.8834 21.4004C31.8564 21.1734 31.8429 21.0392 31.8834 20.9567C31.9781 20.8251 32.092 20.7091 32.2211 20.6127C32.4999 20.4108 32.7157 20.1313 32.8426 19.8078C32.9548 19.3513 32.9105 18.8695 32.717 18.4422C32.5235 18.0149 32.1924 17.6678 31.7787 17.4584C31.6611 17.4084 31.5389 17.3704 31.4139 17.3449C31.8684 16.5866 32.1693 15.7433 32.2988 14.8648C32.4046 14.3372 32.4589 13.8003 32.4609 13.2618C35.8756 16.7016 37.2266 20.2893 37.2266 25.7483C37.2222 29.9612 35.8118 34.0475 33.2268 37.3365C30.6418 40.6255 27.0358 42.9218 23.0006 43.8486V43.8658Z" fill="#A91D20"/>
</svg>
