<svg width="198" height="59" viewBox="0 0 198 59" fill="none" xmlns="http://www.w3.org/2000/svg">
<path d="M97.4173 26.2337C97.4173 20.0185 95.7624 16.0907 91.5201 12.1803C91.4116 11.9307 91.2729 11.6957 91.1072 11.4808C91.0494 11.404 90.9965 11.3233 90.949 11.2395C90.85 11.0599 90.7348 10.8902 90.6049 10.7323C90.4556 10.5692 90.3512 10.3689 90.3021 10.1517C90.2493 9.8892 90.2423 9.61927 90.2815 9.35428C90.3527 8.97807 90.3045 8.58861 90.1439 8.24204C90.046 8.07755 89.9167 7.93464 89.7637 7.82171C89.6107 7.70879 89.4369 7.62813 89.2528 7.58449C89.1511 7.55853 89.0476 7.54099 88.9431 7.53203C89.0085 6.05254 88.6507 4.97528 87.9109 4.49261C87.7305 4.35744 87.517 4.2752 87.2937 4.25485C87.0705 4.2345 86.846 4.27681 86.6448 4.37719C86.6277 4.07619 86.5458 3.78268 86.4049 3.51737C86.264 3.25206 86.0675 3.02142 85.8294 2.84174C85.4884 2.61187 85.2432 2.26173 85.1412 1.85891C85.0341 1.47184 84.8261 1.12139 84.5391 0.844609C84.2186 0.542214 83.8371 0.314519 83.4211 0.177395C83.0052 0.0402712 82.5648 -0.00298139 82.1307 0.0506523C81.5891 0.113852 81.0875 0.37189 80.7166 0.778154C80.3818 0.629973 80.0268 0.534444 79.6638 0.494848C79.4613 0.311173 79.2142 0.185803 78.948 0.131693C78.6819 0.0775839 78.4064 0.0966974 78.1499 0.187059C77.5817 0.368993 77.064 0.685457 76.6395 1.11043L76.4606 1.26782L76.4331 1.2888C76.3867 1.21178 76.3442 1.1324 76.3058 1.05097C76.2334 0.83304 76.0886 0.647536 75.8963 0.526326C75.2426 0.211542 74.4169 0.774656 73.8629 1.40772C73.309 2.04079 73.0957 2.67036 72.8307 3.96797C72.5081 3.75079 72.1617 3.57239 71.7986 3.43633C71.5611 3.36731 71.3407 3.24813 71.1517 3.08657C70.6873 2.64937 70.2365 2.23665 69.5931 2.25764C69.273 2.27409 68.963 2.37752 68.6955 2.55714C68.4281 2.73677 68.2129 2.98603 68.0724 3.27894C67.9524 3.55512 67.9377 3.86676 68.0311 4.15334C68.0972 4.35064 68.0972 4.56462 68.0311 4.76192C67.9867 4.87209 67.9338 4.97852 67.8728 5.08021C67.5609 5.57096 67.3959 6.14328 67.398 6.72758V6.78004C67.3019 6.72512 67.2005 6.68057 67.0953 6.64713C66.8751 6.58068 66.7856 6.43728 66.6377 6.17146C66.5518 5.96561 66.4258 5.77955 66.2673 5.62447C66.1089 5.46939 65.9212 5.3485 65.7156 5.26908C64.6559 4.91932 64.1054 6.95143 64.0469 6.99689C63.9681 7.05139 63.8736 7.07727 63.7785 7.07034C63.564 7.0635 63.3549 7.13976 63.1936 7.2837C62.7463 7.69641 62.9631 8.39594 63.2831 9.44522L63.3897 9.79498C63.8611 11.3444 63.9918 11.5438 64.3324 11.946L64.477 12.1209C64.501 12.1489 64.5286 12.1733 64.5561 12.2013C60.7198 15.8808 58.7071 20.7145 58.7071 26.2267C58.7125 31.4457 60.7544 36.4493 64.3846 40.1396C68.0148 43.83 72.9369 45.9057 78.0708 45.9112C78.9154 45.9109 79.759 45.8537 80.5962 45.7399C80.8763 46.1074 81.1076 46.5107 81.2843 46.9395C81.7041 47.9678 81.7694 48.6499 81.9724 50.6715C82.0068 51.0212 82.0447 51.434 82.0929 51.8851L83.3108 51.7103C83.1594 50.591 83.101 49.8111 83.0562 49.185C83.0218 48.4216 82.9193 47.6631 82.75 46.9185C82.75 46.8556 82.6089 46.3694 82.3647 45.4216C86.6378 44.4237 90.4523 41.9835 93.1859 38.4988C95.9196 35.0142 97.4112 30.6908 97.4173 26.2337ZM89.4351 8.61978C89.5188 8.82592 89.5356 9.05379 89.4833 9.27034C89.4341 9.62542 89.4469 9.98654 89.5211 10.3371C89.5968 10.6704 89.7528 10.9793 89.9753 11.236C90.0731 11.3589 90.1606 11.4899 90.2368 11.6277C90.3029 11.7489 90.3764 11.8657 90.457 11.9775C90.7632 12.4007 91.1795 12.9813 90.801 15.0239C90.3847 17.2379 89.6553 17.7066 89.4248 17.8605L89.3181 17.9339C88.9053 18.2522 88.1655 18.6684 86.4796 18.5845C86.148 18.5423 85.8251 18.4467 85.5231 18.3012C85.3167 18.2137 85.0965 18.1263 84.8591 18.0493C85.0208 17.9129 85.1825 17.773 85.3408 17.6296C86.3784 16.7656 87.2437 15.7078 87.8903 14.5132C88.4545 13.436 89.6106 11.194 88.7745 8.80516C88.7229 8.65826 88.661 8.52185 88.6025 8.38544C88.7539 8.34751 88.9121 8.34751 89.0635 8.38544C89.2069 8.41568 89.3371 8.49165 89.4351 8.60229V8.61978ZM90.3572 21.9107C90.4013 22.1251 90.3931 22.3473 90.3331 22.5577C90.2368 22.834 90.0441 22.9565 89.5074 23.2573C89.2287 23.4181 88.8812 23.607 88.4752 23.9113C88.0946 24.1698 87.7314 24.4537 87.388 24.7612C87.1733 24.9584 86.9432 25.1373 86.6998 25.2964C85.4612 26.0938 83.5414 26.2302 82.5711 25.6041C82.641 25.6078 82.7111 25.6078 82.781 25.6041C83.4538 25.5545 84.1023 25.3279 84.663 24.9466C85.0862 24.6913 85.5885 24.7962 86.0392 24.8906C86.49 24.9851 86.9544 25.083 87.2606 24.7228C87.436 24.5119 87.598 24.2899 87.7458 24.0582C87.8687 23.8363 88.035 23.6423 88.2343 23.4881C88.3879 23.3907 88.566 23.3409 88.747 23.3447C89.0553 23.3444 89.3559 23.2466 89.6071 23.0649C89.9512 22.8061 89.8824 21.7743 90.2333 21.3965C90.2716 21.3451 90.3142 21.2971 90.3606 21.2531C90.327 21.4603 90.3258 21.6716 90.3572 21.8792V21.9107ZM67.8694 24.6318C67.8516 24.5776 67.8229 24.5278 67.7852 24.4855C67.7474 24.4432 67.7015 24.4093 67.6502 24.386C67.5989 24.3626 67.5434 24.3504 67.4872 24.35C67.4311 24.3496 67.3754 24.361 67.3238 24.3836C67.2722 24.4062 67.2258 24.4394 67.1875 24.4812C67.1491 24.523 67.1198 24.5724 67.1012 24.6263C67.0826 24.6802 67.0752 24.7374 67.0796 24.7943C67.0839 24.8513 67.0998 24.9067 67.1262 24.9571C67.229 25.1992 67.2624 25.466 67.2226 25.7266C67.2226 25.7615 67.1985 25.7965 67.1916 25.835C66.7739 25.149 66.2773 24.5161 65.7121 23.9498C66.2041 23.4007 66.3555 22.5507 66.4966 21.7428C66.5379 21.498 66.586 21.2426 66.6411 20.9908C67.5281 21.8652 68.5952 22.5283 69.7652 22.932C70.3998 23.1205 71.0528 23.2378 71.7125 23.2817C71.544 23.3377 71.4063 23.3937 71.2825 23.4461C71.0292 23.5569 70.7651 23.6401 70.4946 23.6945C70.0043 23.7944 69.5047 23.839 69.0048 23.8274C68.5747 23.8274 68.1653 23.8274 68.0724 24.2471C68.0578 24.318 68.0576 24.3911 68.0718 24.4621C68.086 24.5331 68.1143 24.6003 68.155 24.6598C68.4033 24.9434 68.7275 25.1473 69.088 25.2467C69.4485 25.3461 69.8297 25.3366 70.1849 25.2194C70.3099 25.1603 70.4516 25.1491 70.584 25.1879C70.7062 25.2486 70.8216 25.3224 70.9281 25.4083C71.3718 25.7729 71.9199 25.9816 72.4901 26.0029C72.659 26.0022 72.8274 25.9834 72.9925 25.9469H73.0406L72.8204 26.0903L72.731 26.1463C71.4304 26.9787 71.0829 27.1956 71.076 27.8006C71.076 27.979 71.076 28.5002 72.7172 29.0493C72.8627 29.1027 73.0168 29.1276 73.1714 29.1227C73.3744 29.1227 73.6909 29.0983 74.2483 29.0423C74.4408 29.0242 74.6317 28.9915 74.8194 28.9444C74.9777 28.9059 75.1635 28.8569 75.6073 28.7905C76.0993 28.717 76.378 28.6925 76.5982 28.675C76.8007 28.6648 77.0021 28.6379 77.2003 28.5946C78.0346 28.3703 78.7814 27.8918 79.3404 27.2235C79.4161 27.1396 79.4883 27.0557 79.5571 26.9682C79.8308 26.9549 80.0999 26.8922 80.3519 26.7828C80.4788 27.3776 80.5297 27.9866 80.5033 28.5946C80.4669 29.7555 80.3519 30.9124 80.1592 32.0572L80.0698 32.6378C79.7643 34.9118 79.7032 37.2127 79.8874 39.5001V39.6505C79.9967 40.8841 80.205 42.1065 80.5102 43.3055C80.5118 43.3265 80.5118 43.3475 80.5102 43.3685L80.4379 43.2566C79.6328 42.0569 78.7692 40.8712 77.9366 39.724C77.1384 38.6292 76.3161 37.4995 75.5488 36.3628C74.7403 35.1666 73.9008 34.0299 73.0647 32.9946C73.1799 32.8285 73.2725 32.6473 73.34 32.456C73.4727 32.028 73.4727 31.5688 73.34 31.1409C73.3241 31.0894 73.2985 31.0416 73.2645 31.0003C73.2306 30.9589 73.1889 30.9247 73.1419 30.8997C73.095 30.8747 73.0436 30.8593 72.9908 30.8545C72.938 30.8497 72.8848 30.8555 72.8342 30.8715C72.7836 30.8876 72.7366 30.9137 72.6959 30.9482C72.6552 30.9827 72.6216 31.0251 72.597 31.0728C72.5724 31.1206 72.5573 31.1728 72.5525 31.2265C72.5478 31.2801 72.5534 31.3342 72.5693 31.3857C72.6514 31.6509 72.6514 31.9354 72.5693 32.2006C72.5693 32.2461 72.5314 32.2881 72.5142 32.33C72.2802 32.0572 72.0497 31.7879 71.8261 31.5326C71.4637 31.1292 71.0932 30.734 70.7148 30.3469C70.5001 30.0916 70.2703 29.8498 70.0267 29.6229C70.002 29.5955 69.9755 29.5698 69.9475 29.5459L69.8959 29.5075C69.6161 29.2793 69.3041 29.0954 68.9704 28.9618C68.6169 28.1553 68.2028 27.3777 67.7318 26.6359C67.9194 26.3366 68.0314 25.9949 68.0578 25.6409C68.0842 25.287 68.0242 24.932 67.8832 24.6073L67.8694 24.6318ZM65.141 22.1835C65.0983 22.2851 65.018 22.3656 64.9174 22.4073C64.8586 22.4242 64.7969 22.4266 64.737 22.4145C64.6772 22.4023 64.6211 22.3759 64.5733 22.3374C64.4491 22.2429 64.345 22.124 64.2671 21.9876C64.2178 21.8736 64.13 21.7813 64.0195 21.7274C63.9091 21.6735 63.7833 21.6616 63.665 21.6938C63.462 21.7673 63.2108 22.2045 63.0663 22.6767C63.0422 22.6767 62.4436 22.932 62.1993 22.1135C62.0789 21.7078 62.1993 21.463 62.4573 21.0643C62.598 20.8652 62.7136 20.649 62.8014 20.4207C63.0441 20.4433 63.2887 20.4291 63.5273 20.3787C64.1535 20.2353 64.5595 20.3018 64.8348 20.5991C65.0174 20.8031 65.1422 21.0536 65.1961 21.3239C65.25 21.5942 65.231 21.8743 65.141 22.1345V22.1835ZM68.905 7.89228C69.0545 7.75785 69.2119 7.63287 69.3764 7.51804C69.4727 7.44459 69.5691 7.37464 69.6654 7.29419C69.6649 7.76842 69.6292 8.24194 69.5587 8.71072C69.478 9.03488 69.343 9.3425 69.1596 9.6201C68.8465 10.1203 68.6504 10.5365 68.7399 11.7746C68.8076 12.4502 68.9472 13.1163 69.1562 13.7613C68.5678 12.8904 68.1997 12.2678 68.0724 11.5298C68.0621 11.5053 67.6458 8.99752 68.905 7.84331V7.89228ZM76.9388 3.75461C76.8184 2.72282 77.5306 1.84492 78.8449 1.41122C78.9838 1.3692 79.1269 1.34338 79.2716 1.33427C79.3313 1.44515 79.3786 1.56247 79.4126 1.68403C79.4826 2.11389 79.4151 2.55524 79.22 2.94317H79.017C78.1947 2.96765 77.7508 3.57973 77.3207 4.17433C77.1954 4.33813 77.0805 4.50986 76.9767 4.68848C76.9874 4.36037 76.9747 4.0319 76.9388 3.70565V3.75461ZM87.9969 9.10245C88.0742 9.3196 88.1329 9.54311 88.1724 9.77049C87.7699 8.95555 86.9957 8.53934 86.4177 8.23155C86.1996 8.13065 85.9921 8.0076 85.7984 7.8643C85.5961 7.69498 85.4345 7.48093 85.326 7.23846C85.2175 6.996 85.1649 6.73154 85.1722 6.46526C85.2548 6.46526 85.3374 6.46526 85.4234 6.49324C86.9441 6.6961 87.6907 8.18608 87.9969 9.05348V9.10245ZM81.477 19.2455C81.2203 18.577 80.7612 18.0087 80.1661 17.6226C80.3004 17.4665 80.4705 17.3465 80.6614 17.2732C80.8523 17.2 81.058 17.1759 81.2602 17.2029C81.5125 17.229 81.7664 17.1739 81.9862 17.0455L82.3303 16.7622C82.6344 16.4759 82.9959 16.26 83.39 16.1291C83.8717 16.0172 84.7146 16.2446 85.3305 16.4789C85.1378 16.6608 84.952 16.8287 84.7834 16.9791C83.7992 17.8874 82.6841 18.6376 81.477 19.2035V19.2455ZM74.699 37.0763C74.4375 36.9854 74.1657 36.8874 73.9249 36.786L73.8113 36.737C72.9821 36.3873 71.0588 35.6003 69.7067 31.0044C69.8098 30.9317 69.9045 30.8472 69.9888 30.7526C70.1574 30.924 70.3329 31.1024 70.4911 31.2738C71.9969 33.1284 73.4016 35.0655 74.699 37.0763ZM80.9265 24.6878C80.7166 25.2719 80.5618 25.6951 80.1902 25.9189C80.6272 24.9681 80.8336 23.9247 80.7923 22.876C80.898 22.8099 80.9981 22.735 81.0916 22.6522C81.3084 23.0859 81.1054 24.1981 80.9265 24.6948V24.6878ZM78.5903 26.5205C78.625 26.579 78.6679 26.632 78.7176 26.6779C78.2763 27.2017 77.69 27.5783 77.0352 27.7587C76.875 27.7905 76.7129 27.8115 76.55 27.8216C76.3264 27.8216 76.0202 27.8636 75.5007 27.944C75.0362 28.014 74.4065 28.1644 74.1829 28.1854C73.1507 28.2903 73.0991 28.2693 72.9546 28.2239C72.585 28.1199 72.2358 27.9519 71.9224 27.7272C73.0991 26.8843 76.495 24.317 76.5982 24.2086C76.5982 24.2086 77.245 23.7959 77.5272 23.656C77.76 23.5447 78.0131 23.4839 78.2703 23.4776C78.4217 23.4776 78.5628 23.4776 78.697 23.4776C78.9473 23.4893 79.1979 23.4622 79.4402 23.3972C79.5537 23.3762 79.6604 23.3517 79.7636 23.3272C79.6525 23.6559 79.5239 23.9782 79.3782 24.2925C79.2189 24.6386 79.042 24.9759 78.8484 25.3034C78.5662 25.765 78.3495 26.1393 78.5903 26.5275V26.5205ZM66.0218 15.1183C66.0693 14.8129 66.0923 14.5041 66.0906 14.195C66.0906 14.0061 66.1181 13.8452 66.125 13.7123C66.8476 13.9661 67.5181 14.3525 68.1034 14.8525C68.1977 14.9321 68.2873 15.0174 68.3717 15.1078L68.5128 15.2652L68.7089 15.4926C68.966 15.8291 69.2696 16.1259 69.6103 16.374C70.0975 16.7265 70.6132 17.0366 71.1517 17.3008C71.1035 17.4127 71.0688 17.5302 71.0485 17.6506C70.9591 18.0948 71.0692 18.4236 71.279 19.0182L71.3582 19.2525C71.4594 19.5253 71.5118 19.8143 71.513 20.1059C71.5145 20.362 71.5575 20.6161 71.6403 20.8579C71.6906 20.9966 71.7516 21.1311 71.8226 21.2601C71.1861 21.3441 70.381 21.3685 69.0977 20.7005L69.0151 20.6585C66.906 19.5778 65.8773 17.9234 65.9495 15.7409C65.9736 15.5206 65.9977 15.3072 66.0218 15.1183ZM77.9091 11.6207C77.9435 11.6207 78.7589 11.7851 78.9585 12.3202C79.0445 12.5406 78.9241 12.8834 78.7864 13.2786C78.6952 13.5201 78.6171 13.7664 78.5525 14.0166C78.3667 14.7581 78.2084 15.9962 78.7004 17.07L78.4149 17.014C78.1759 16.9759 77.934 16.9607 77.6923 16.9686C77.5754 16.9858 77.4561 16.9688 77.3483 16.9196C77.1116 16.7998 76.9214 16.6028 76.8081 16.36C76.6294 16.0121 76.3495 15.7287 76.0064 15.5485C75.8 15.4506 75.4697 15.3667 74.7368 15.4996C74.9295 15.1664 75.0601 14.8001 75.1222 14.4188C75.4215 13.0827 75.5213 12.9603 75.8516 12.5546L75.917 12.4811C76.1541 12.1832 76.4601 11.9496 76.8078 11.8012C77.1554 11.6529 77.5338 11.5945 77.9091 11.6312V11.6207ZM84.2948 6.48275C84.2226 7.25222 83.968 8.37145 83.101 8.58131C82.7491 8.68609 82.4224 8.8635 82.141 9.10245C82.1888 8.84329 82.2232 8.58179 82.2442 8.31899C82.2471 8.16703 82.2799 8.01719 82.3406 7.87829C82.5479 7.51606 82.83 7.20377 83.1673 6.96287C83.5047 6.72197 83.8893 6.55817 84.2948 6.48275ZM81.1983 14.4188C81.1015 14.0616 81.0655 13.6901 81.0916 13.3206C81.0916 13.1527 81.2774 12.5231 81.5114 11.6452C81.5458 11.5123 81.5802 11.3934 81.6077 11.2955C81.9518 10.3091 82.7294 9.54665 83.328 9.40674C83.6747 9.30365 83.9914 9.11637 84.251 8.86105C84.5105 8.60573 84.7051 8.29005 84.8178 7.94125C84.9546 8.13404 85.1154 8.30803 85.2961 8.45889C85.534 8.63883 85.7886 8.79464 86.0564 8.92407C86.6276 9.22487 87.2744 9.56763 87.529 10.2357C87.8456 11.0611 87.3673 11.6872 86.8065 12.3133C86.702 12.4236 86.6043 12.5404 86.514 12.663C86.1403 13.1961 85.9548 13.842 85.9876 14.4958C85.9899 14.9339 85.9284 15.37 85.8053 15.7899C85.1963 15.5415 84.0471 15.1428 83.2283 15.3317C82.7151 15.484 82.2439 15.7559 81.852 16.1256L81.5424 16.374C81.4519 16.3804 81.361 16.3804 81.2706 16.374H81.0125C81.1395 16.13 81.2343 15.8701 81.2946 15.601C81.3498 15.2046 81.3169 14.8006 81.1983 14.4188ZM79.7464 22.4633C80.1799 21.7148 80.5171 20.3647 80.056 19.5533C79.9356 19.3434 79.5709 18.7034 77.9022 17.8884L77.6958 17.787C77.8902 17.7793 78.085 17.791 78.2772 17.822C78.789 17.9002 79.2823 18.0733 79.7326 18.3326C80.8095 18.9762 81.3187 20.683 80.7648 21.7743C80.7269 21.8722 80.5102 22.2325 79.7464 22.4633ZM75.8791 22.5612C75.3367 22.5392 74.8022 22.4208 74.2999 22.2115C73.6118 21.8897 72.7034 21.4455 72.4041 20.5956C72.348 20.4338 72.3201 20.2634 72.3215 20.0919C72.3169 19.7181 72.2494 19.3479 72.122 18.9972L72.0394 18.7593C71.9809 18.581 71.9327 18.4446 71.8983 18.3221C72.1617 18.3504 72.4281 18.322 72.68 18.2389C72.9319 18.1557 73.1638 18.0196 73.3606 17.8395C73.5778 17.6347 73.7259 17.3654 73.7838 17.07L73.8079 16.9791C73.9145 16.9581 74.3584 16.9791 75.9135 18.1298L76.0408 18.2277C76.7294 18.8212 77.6015 19.1493 78.5043 19.1546C78.8437 19.3538 79.1352 19.6274 79.3576 19.9555C79.6466 20.4627 79.3335 21.6309 78.9894 22.1415C78.8002 22.4143 77.3723 22.6382 76.0408 22.5612C75.987 22.5575 75.933 22.5575 75.8791 22.5612ZM72.4385 17.3148C72.522 17.2759 72.6036 17.2327 72.6828 17.1854C72.786 17.133 72.872 17.0945 72.9443 17.063C72.9207 17.1325 72.8805 17.195 72.8273 17.2449C72.6379 17.4164 72.3929 17.5111 72.1392 17.5107C72.2312 17.43 72.3316 17.3596 72.4385 17.3008V17.3148ZM74.7162 16.346C75.0215 16.2497 75.346 16.234 75.6589 16.3005C75.8576 16.4118 76.0174 16.5828 76.1165 16.7902C76.175 16.8846 76.2404 16.9861 76.3161 17.0875C75.7966 16.8064 75.2626 16.5542 74.7162 16.332V16.346ZM68.6504 21.4L68.7261 21.4385C69.4967 21.8776 70.3615 22.1178 71.2446 22.138C71.5548 22.1343 71.8642 22.1062 72.1701 22.0541L72.4385 22.0226C72.661 22.2187 72.9018 22.392 73.1576 22.5402C72.1008 22.54 71.0485 22.4013 70.0267 22.1275C69.2247 21.8487 68.4746 21.4348 67.8075 20.9034C68.078 21.0867 68.3595 21.2525 68.6504 21.4ZM75.9583 23.3902H76.323C76.034 23.5755 75.7312 23.7889 75.4146 24.0267C74.6115 24.5067 73.7465 24.8704 72.8445 25.1075C72.5892 25.1565 72.3262 25.1448 72.076 25.0732C71.8259 25.0016 71.5955 24.8721 71.4029 24.6948C71.2534 24.582 71.0932 24.4847 70.9247 24.4045C71.1486 24.3428 71.3682 24.2657 71.5818 24.1736C71.856 24.0557 72.1405 23.9643 72.4316 23.9008C74.1588 23.5406 75.4731 23.3447 75.9583 23.3902ZM86.7824 14.5097C86.745 14.0118 86.8815 13.5165 87.1678 13.1107C87.209 13.0512 87.2985 12.9533 87.3914 12.8449C87.6292 12.5941 87.8434 12.3212 88.0313 12.0299C87.8123 12.7444 87.5206 13.4336 87.1609 14.0865C87.037 14.3209 86.9063 14.5377 86.7721 14.7441C86.7755 14.6706 86.779 14.5867 86.7824 14.5097ZM81.6215 7.55301C81.5251 7.77387 81.4702 8.01114 81.4598 8.25253C81.4197 8.71401 81.3426 9.17139 81.2293 9.6201C81.1639 9.89291 81.1226 10.0363 81.0504 10.3021C80.9781 10.5679 80.8921 10.8513 80.7407 11.4179C80.5538 12.0171 80.4055 12.6282 80.2969 13.2471C80.2628 13.7022 80.3047 14.1598 80.4207 14.6007C80.5086 14.8771 80.531 15.1707 80.4861 15.4576C80.3111 16.0298 80.0098 16.5537 79.6053 16.9895C79.0066 16.0977 79.1752 14.891 79.3473 14.1915C79.4057 13.9606 79.4814 13.7403 79.5571 13.5304C79.7429 12.9988 79.9218 12.4811 79.7223 11.9915C79.3782 11.0856 78.2841 10.8408 78.0673 10.7988C77.568 10.7166 77.056 10.7809 76.5913 10.9842C76.3969 10.3766 76.3381 9.73254 76.4193 9.09895V8.94856C76.5063 8.44898 76.6579 7.96327 76.87 7.50405C76.9635 7.2873 77.045 7.06544 77.1143 6.8395C77.1625 6.65063 77.2038 6.48974 77.245 6.30787C77.3472 5.67467 77.5961 5.07524 77.971 4.55906C78.4183 3.94698 78.6591 3.67417 79.041 3.66368C79.21 3.65198 79.3791 3.68402 79.5325 3.75681C79.6859 3.8296 79.8187 3.94076 79.9184 4.07989C80.2126 4.40606 80.5812 4.65353 80.9919 4.8004C81.3217 4.8756 81.6663 4.8463 81.9793 4.71646C82.5642 4.53808 82.9461 4.45763 83.3968 4.98927C83.5634 5.21676 83.6689 5.48432 83.7031 5.76574C83.2528 5.90261 82.8349 6.13181 82.4751 6.43921C82.1153 6.7466 81.8213 7.12566 81.6112 7.55301H81.6215ZM75.6589 10.6029C75.7133 10.8769 75.7857 11.1468 75.8757 11.4109C75.6625 11.5636 75.4694 11.7435 75.3011 11.946L75.2392 12.023C74.816 12.5371 74.668 12.7679 74.3412 14.2299C74.1485 15.0729 74.0969 15.2163 73.3847 15.3212C72.2149 15.4891 71.7401 15.8633 71.5096 16.2586C70.1333 14.877 69.6379 12.7609 69.5553 11.6662C69.4727 10.5714 69.6275 10.3686 69.8512 10.0118C70.0832 9.66344 70.2532 9.27632 70.3535 8.86811C70.4321 8.41891 70.4736 7.96379 70.4774 7.50754C70.713 7.80952 71.0315 8.03352 71.3926 8.1511C72.2114 8.39594 72.8514 8.1511 73.801 7.22074C74.0481 7.6756 74.2124 8.17205 74.2861 8.68624C74.3618 9.50817 74.4685 10.1587 75.0775 10.4665C75.2556 10.5543 75.4507 10.6008 75.6486 10.6029H75.6589ZM73.2505 6.61915C72.3731 7.49006 72.0256 7.48306 71.6197 7.36065C71.2137 7.23823 70.8937 6.71709 70.6976 6.37782C70.6528 6.29459 70.6034 6.21401 70.5496 6.13648C70.7629 5.78672 70.8283 5.72726 70.9935 5.72726C71.0755 5.76719 71.1529 5.81648 71.224 5.87416C71.6322 6.18548 72.1016 6.40379 72.6002 6.51423C72.8107 6.56539 73.0246 6.60046 73.2402 6.61915H73.2505ZM65.867 30.5568C65.1444 30.1685 64.7316 29.4095 64.7694 29.1577C65.1463 29.1122 65.5278 29.124 65.9014 29.1927C65.7958 29.403 65.7379 29.6347 65.7319 29.8708C65.726 30.1068 65.7721 30.3412 65.867 30.5568ZM66.5998 29.6299C66.7812 29.4758 67.0143 29.3993 67.2501 29.4165C67.3306 29.4175 67.4111 29.4234 67.4909 29.434C67.6996 29.4647 67.9001 29.5377 68.0804 29.6489C68.2607 29.7601 68.4172 29.9071 68.5403 30.0811C68.6126 30.2804 68.6745 30.4623 68.7261 30.6302C68.6308 30.6762 68.5332 30.717 68.4337 30.7526C67.9371 30.9015 67.4143 30.9374 66.9026 30.8575C66.5929 30.3749 66.4656 29.7838 66.5998 29.6299ZM68.7123 31.5256C68.6322 31.5921 68.5398 31.6416 68.4405 31.671C68.3412 31.7005 68.2371 31.7093 68.1343 31.697H68.0724C68.2913 31.664 68.5059 31.6065 68.7123 31.5256ZM90.2815 20.3123C89.9427 20.4707 89.6629 20.7355 89.4833 21.0678C89.364 21.3581 89.2864 21.6643 89.2528 21.9771C89.2115 22.2639 89.1908 22.3479 89.1255 22.3968C88.9942 22.4851 88.8389 22.5292 88.6816 22.5228C88.3662 22.5266 88.058 22.6186 87.7905 22.7886C87.4954 23.002 87.249 23.2776 87.068 23.5965C86.9446 23.7898 86.8102 23.9755 86.6654 24.1526C86.5072 24.1462 86.3503 24.1215 86.1975 24.0792C85.6676 23.9708 84.9451 23.8169 84.2501 24.2366C83.476 24.7018 82.836 24.8801 82.4851 24.7228C82.4163 24.6913 82.2064 24.5968 82.1032 24.1107C82.1488 23.4333 82.0306 22.7549 81.7591 22.1345C81.7075 22.0234 81.6704 21.9058 81.649 21.7848C81.8334 21.2037 81.8619 20.583 81.7316 19.987C82.28 19.7408 82.8101 19.4544 83.3177 19.1301C83.5035 19.291 83.765 19.4798 84.1297 19.7597C85.0415 20.4592 86.3042 20.2003 87.9144 19.6302C88.5365 19.4094 89.1348 19.1246 89.7 18.7803C90.2609 18.4515 90.3882 18.3851 90.7322 18.539C90.9475 18.65 91.1215 18.8292 91.2277 19.0496C91.1761 19.7666 90.7357 20.036 90.2815 20.3123ZM84.0574 18.6859C84.4529 18.7506 84.8381 18.8682 85.2032 19.0356C85.4642 19.1486 85.7333 19.241 86.0083 19.312C85.3649 19.4134 84.9279 19.3434 84.6045 19.1021L84.0574 18.6859ZM86.9613 5.17114C87.068 5.00676 87.2434 5.00676 87.4808 5.17114C87.9591 5.48243 88.1965 6.34634 88.1449 7.50754C87.7659 6.88825 87.2408 6.37491 86.6173 6.01407C86.7084 5.72374 86.8235 5.44176 86.9613 5.17114ZM82.2511 0.844609C82.5697 0.805934 82.8927 0.838483 83.1976 0.939981C83.5024 1.04148 83.7818 1.20947 84.0162 1.43221C84.2038 1.62563 84.3359 1.86752 84.3981 2.13173C84.5524 2.70102 84.8997 3.19653 85.3786 3.53077C85.6986 3.75462 86.0151 4.32822 85.7984 5.72377C85.7158 5.70278 85.6367 5.6748 85.5507 5.66081C85.4161 5.64089 85.2806 5.62805 85.1447 5.62234C85.0862 4.02043 84.8557 2.77529 83.2833 2.35557C82.88 2.2777 82.4626 2.35632 82.1135 2.57592C82.0146 2.07178 81.7758 1.60695 81.4254 1.23634C81.6572 1.02681 81.9442 0.890664 82.2511 0.844609ZM80.5824 1.59659C81.1845 1.8764 81.3256 2.68785 81.391 3.07958C81.4288 3.30342 81.4701 3.53776 81.735 3.61821L81.9759 3.68117L82.1445 3.52028C82.2924 3.38737 82.7879 3.03761 83.0872 3.12155C83.8682 3.32791 84.1847 3.74412 84.3017 4.9438C84.2306 4.77847 84.1367 4.62422 84.023 4.48561C83.2076 3.52377 82.3371 3.78609 81.7591 3.95748C81.6008 4.02276 81.4311 4.05488 81.2602 4.05191C80.9652 3.94557 80.7021 3.76366 80.4964 3.52377C80.3509 3.3687 80.1881 3.23137 80.0113 3.11455C80.2501 2.59023 80.3188 2.0023 80.2074 1.4357C80.3247 1.47669 80.4396 1.52457 80.5515 1.57911L80.5824 1.59659ZM74.4719 1.94635C74.9089 1.44969 75.3286 1.24683 75.5041 1.24683C75.5282 1.2888 75.5557 1.35176 75.5798 1.39723C75.7071 1.66305 75.8826 2.0268 76.2679 2.09675C76.3476 2.11065 76.4291 2.11065 76.5088 2.09675C76.1972 2.60079 76.0671 3.19901 76.1406 3.78959C76.3023 5.16765 76.0546 5.63283 75.7415 6.23791C75.4986 6.63026 75.3349 7.06778 75.2598 7.52503C75.103 8.21893 75.1582 8.94496 75.4181 9.60611C75.4456 9.66207 75.4697 9.71103 75.4903 9.76L75.4318 9.73552C75.2633 9.65158 75.1635 9.45221 75.0878 8.61279C74.9717 7.71254 74.6079 6.8639 74.0384 6.16446C74.029 6.15418 74.0186 6.14482 74.0074 6.13648C74.0681 6.08919 74.1185 6.02965 74.1554 5.9616C74.2827 5.73076 74.3653 5.24459 73.5774 4.52759C73.8629 2.95366 73.973 2.48848 74.4719 1.93236V1.94635ZM68.5782 5.45445C68.6735 5.30161 68.7519 5.13858 68.8121 4.96828C68.9245 4.62892 68.9317 4.26266 68.8328 3.919C68.8073 3.86433 68.7942 3.8046 68.7942 3.74412C68.7942 3.68364 68.8073 3.62392 68.8328 3.56924C68.9095 3.41752 69.0238 3.28871 69.1643 3.1955C69.3049 3.10228 69.4669 3.04787 69.6344 3.03761C69.9406 3.03761 70.1987 3.25096 70.6219 3.64969C70.8788 3.89463 71.1836 4.08174 71.5164 4.19881C71.9417 4.35271 72.3401 4.57469 72.6966 4.85636C72.6594 5.15856 72.7109 5.46519 72.8445 5.73776H72.7826C72.3822 5.64961 72.0054 5.47419 71.6781 5.22361C71.4858 5.05301 71.2445 4.94998 70.99 4.92981C70.3294 4.92981 70.0542 5.388 69.8133 5.79372C69.772 5.86367 69.7308 5.93712 69.6826 6.01057C69.4881 6.33697 69.2234 6.61438 68.9085 6.82201C68.7393 6.94301 68.5762 7.07259 68.4199 7.21025C68.315 7.06403 68.2443 6.89534 68.2135 6.71709C68.2095 6.2688 68.3364 5.8294 68.5782 5.45445ZM64.1639 9.53965L64.0538 9.18989C63.8957 8.77444 63.7938 8.33909 63.751 7.89578H63.8267C64.0825 7.88994 64.3307 7.80584 64.5389 7.65444C64.969 7.34665 65.4094 6.08402 65.461 6.05604C65.713 6.16714 65.9171 6.36714 66.0355 6.61915C66.1045 6.80619 66.2153 6.97435 66.3592 7.11034C66.5031 7.24632 66.6762 7.34638 66.8647 7.40262C67.1178 7.52527 67.3428 7.70041 67.5253 7.91676L67.7146 8.09864C66.9301 9.60261 67.2501 11.5753 67.2673 11.6732C67.4176 12.4145 67.7201 13.1153 68.155 13.7298C67.465 13.0987 66.6998 12.5581 65.8773 12.1209C65.5944 11.9891 65.3342 11.812 65.1066 11.5962C65.0481 11.5193 64.993 11.4598 64.9449 11.4039C64.7075 11.1171 64.6077 10.9982 64.1639 9.53965ZM59.4984 26.2337C59.4984 20.9034 61.4767 16.2341 65.2201 12.7015L65.5229 12.8764L65.4954 12.8974C65.436 12.954 65.3904 13.024 65.3624 13.1017C65.3343 13.1795 65.3245 13.2628 65.3337 13.345C65.3337 13.5794 65.2993 14.1215 65.1892 15.0624C65.1651 15.2722 65.1479 15.4926 65.141 15.7164C65.024 16.9056 64.9827 18.5145 65.7328 19.8261C65.8497 20.0256 65.9808 20.2162 66.125 20.3962C66.1014 20.3987 66.0782 20.4046 66.0562 20.4137C65.9637 20.4566 65.8779 20.5132 65.8016 20.5816C65.6971 20.3667 65.5588 20.1706 65.3922 20.001C64.6593 19.256 63.6719 19.4868 63.3278 19.5638C62.9567 19.5792 62.5849 19.5628 62.2165 19.5148C62.0911 19.8888 61.9429 20.2544 61.7726 20.6096C61.4653 21.0163 61.3203 21.5259 61.3666 22.0366C61.3003 21.9904 61.2217 21.9657 61.1413 21.9657C61.0609 21.9657 60.9823 21.9904 60.9159 22.0366L60.6682 22.2185L60.768 22.5682C60.9022 23.0334 61.112 23.8099 61.8242 24.0057C62.0934 24.0545 62.337 24.1982 62.5124 24.4115C62.6275 24.5436 62.7581 24.6611 62.9012 24.7612C63.2072 24.966 63.567 25.072 63.9333 25.0655C64.42 25.0489 64.898 24.9298 65.3371 24.7158C66.3142 25.5762 67.5425 27.8916 67.9176 28.6541C67.4536 28.5628 66.9849 28.4985 66.5138 28.4617L66.1938 28.4302C65.0687 28.3008 64.3909 28.2239 64.0778 28.752C64.008 28.8999 63.9717 29.0619 63.9717 29.2259C63.9717 29.39 64.008 29.552 64.0778 29.6998C64.2424 30.108 64.4885 30.477 64.8006 30.7835C65.1127 31.0899 65.4841 31.3271 65.891 31.4801C66.0755 31.5426 66.264 31.5917 66.4553 31.627C66.6567 31.8796 66.9055 32.0888 67.1873 32.2425C67.4691 32.3963 67.7781 32.4914 68.0965 32.5224H68.2307C68.5742 32.5265 68.9095 32.4146 69.1837 32.2041C69.2353 32.365 69.2938 32.5329 69.3661 32.7183C69.5002 33.068 69.7101 33.5752 69.9785 34.1488C69.5293 34.4104 69.0288 34.568 68.5128 34.6105C67.6412 34.6683 66.7778 34.4092 66.0768 33.8795C66.0341 33.8476 65.9857 33.8245 65.9342 33.8116C65.8827 33.7987 65.8293 33.7963 65.7769 33.8044C65.7245 33.8125 65.6742 33.8311 65.6288 33.8589C65.5835 33.8868 65.544 33.9235 65.5126 33.9669C65.4812 34.0103 65.4585 34.0596 65.4458 34.1119C65.4331 34.1642 65.4307 34.2186 65.4387 34.2718C65.4467 34.3251 65.4649 34.3762 65.4924 34.4223C65.5198 34.4684 65.5559 34.5086 65.5986 34.5405C66.3654 35.1194 67.2928 35.4365 68.2479 35.4464C68.3545 35.4464 68.4612 35.4464 68.5747 35.4464C69.2054 35.3932 69.817 35.201 70.3673 34.8833C70.7543 35.5532 71.2237 36.1703 71.7642 36.7195C72.4053 37.3712 73.1947 37.8517 74.0625 38.1186C74.8427 38.3633 75.5596 38.7815 76.1613 39.3427C76.4778 39.633 76.55 39.738 77.2175 40.7418C77.5616 41.2419 78.0192 41.9554 78.7245 43.0047C79.2991 43.8581 79.7292 44.4807 80.056 44.9564C79.3911 45.0309 78.7226 45.0682 78.0536 45.0683C73.1392 45.0619 68.4274 43.0763 64.9498 39.5463C61.4722 36.0164 59.512 31.2295 59.4984 26.2337ZM82.1376 44.6311L81.7591 43.1656C81.3325 41.4973 81.1501 39.8674 81.071 36.9259C81.0217 35.7569 81.0816 34.5858 81.2499 33.4283C81.2706 33.2604 81.2912 33.0785 81.3153 32.9141C81.3738 32.4035 81.4391 31.9698 81.5011 31.5501C81.6181 30.7631 81.7282 30.0181 81.8073 28.8604C81.8245 28.6296 81.8451 28.3673 81.8658 28.0909C81.9105 27.4894 81.9621 26.8178 81.9931 26.1952H82.0103C82.6576 26.627 83.4215 26.8422 84.1951 26.8108C85.2295 26.8132 86.2442 26.5238 87.1265 25.9749C87.401 25.7957 87.661 25.5946 87.904 25.3733C88.2302 25.0854 88.575 24.8202 88.9362 24.5793C89.3319 24.3065 89.6656 24.1142 89.9306 23.9568C90.5017 23.628 90.9146 23.3867 91.121 22.8131C91.2235 22.4818 91.2459 22.1302 91.1864 21.7883C91.1589 21.5574 91.1451 21.421 91.1864 21.3371C91.2829 21.2033 91.3989 21.0854 91.5304 20.9873C91.8144 20.782 92.0342 20.4979 92.1635 20.1689C92.2778 19.7047 92.2327 19.2148 92.0355 18.7804C91.8384 18.3459 91.5012 17.993 91.0797 17.78C90.9599 17.7292 90.8354 17.6905 90.7081 17.6646C91.1712 16.8936 91.4777 16.0361 91.6096 15.1428C91.7174 14.6064 91.7727 14.0604 91.7747 13.5129C95.2532 17.0105 96.6294 20.6585 96.6294 26.2092C96.625 30.4929 95.1882 34.6478 92.5549 37.9921C89.9216 41.3363 86.2482 43.6712 82.1376 44.6136V44.6311Z" fill="white"/>
<path d="M152.316 9.79492H152.023C147.597 9.80974 143.356 11.6094 140.234 14.799C137.111 17.9885 135.361 22.3072 135.367 26.8073C135.37 28.9974 135.803 31.1649 136.642 33.1824C137.48 35.1999 138.707 37.0268 140.249 38.5557C143.386 41.662 147.589 43.4055 151.968 43.4174H152.23C161.375 43.267 168.745 35.4743 168.628 26.0413C168.599 23.882 168.146 21.7502 167.296 19.7712C166.446 17.7922 165.215 16.0057 163.677 14.5167C160.642 11.4939 156.564 9.79895 152.316 9.79492ZM142.627 15.0938C145.159 12.8042 148.435 11.5483 151.824 11.5682C153.819 11.5689 155.793 11.9876 157.622 12.7982C159.451 13.6088 161.096 14.7938 162.455 16.2795C167.379 21.6553 168.321 31.55 161.877 37.7058C158.781 40.6508 155.213 41.9274 150.929 41.6126C144.505 41.137 138.742 35.6247 137.81 29.0597C137.666 28.0618 137.576 27.0564 137.542 26.0483C137.562 21.7113 139.179 18.2311 142.627 15.0938Z" fill="white"/>
<path d="M197.835 42.0249C197.754 41.5721 197.707 41.1138 197.694 40.6538C197.675 31.1753 197.675 21.698 197.694 12.2218C197.707 11.8231 197.754 11.4264 197.835 11.0361C197.869 10.8332 197.907 10.6269 197.935 10.424L197.997 9.96582H195.299L195.358 10.417C195.385 10.6444 195.423 10.8577 195.457 11.0676C195.531 11.4314 195.573 11.8013 195.581 12.1728C195.597 21.6653 195.597 31.1601 195.581 40.6573C195.566 41.1267 195.517 41.5943 195.433 42.0563C195.395 42.2837 195.361 42.5075 195.337 42.7244L195.279 43.1756H197.969L197.914 42.7244C197.904 42.4796 197.869 42.2522 197.835 42.0249Z" fill="white"/>
<path d="M109.466 9.97379V12.9607V13.2545L110.179 12.2857C110.591 11.7261 111.094 11.6946 111.858 11.7051H121.305C121.326 11.8625 121.354 39.4971 121.354 39.9902V40.6898C121.339 41.1594 121.288 41.6271 121.202 42.0888C121.168 42.3161 121.133 42.54 121.106 42.7533L121.051 43.2045H123.738L123.686 42.7568C123.659 42.5295 123.624 42.2986 123.59 42.0573C123.51 41.6057 123.464 41.1485 123.452 40.6898C123.435 31.6624 123.47 11.8905 123.49 11.7226C125.08 11.7226 130.485 11.7226 133.251 11.7226C133.607 11.7083 133.961 11.7803 134.283 11.9325C134.409 12.0224 134.519 12.1322 134.61 12.2577L135.319 13.2266V9.9668L109.466 9.97379Z" fill="white"/>
<path d="M27.1154 42.519C26.2419 42.1796 25.3279 41.9596 24.3973 41.8649C24.3973 41.5152 24.3526 14.6571 24.3561 12.1808C24.3709 11.7823 24.4181 11.3857 24.4971 10.9951C24.535 10.7922 24.5694 10.5893 24.5969 10.383L24.6588 9.9248H21.9614L22.0199 10.3795C22.0474 10.6068 22.0853 10.8202 22.1197 11.0265C22.193 11.3906 22.2356 11.7604 22.247 12.1318C22.247 15.0733 22.247 32.313 22.1988 33.4007C22.1757 34.5494 21.8879 35.6765 21.3585 36.6916C20.8291 37.7066 20.0728 38.5813 19.1504 39.2452C17.8407 40.2745 16.3217 40.9938 14.7039 41.3508C13.0862 41.7078 11.4105 41.6934 9.79885 41.3088C7.54181 40.8017 5.82839 39.8818 4.55536 38.5107C3.09655 36.9158 2.40842 34.8557 2.40842 32.208C2.40842 28.3327 2.40842 12.1808 2.40842 12.1808C2.42158 11.7821 2.46878 11.3854 2.54949 10.9951C2.5839 10.7922 2.6183 10.5893 2.64927 10.383L2.7112 9.9248H0L0.0584903 10.3795C0.0825746 10.5893 0.116981 10.7957 0.151387 11.0056C0.226264 11.4142 0.269975 11.8282 0.28213 12.2437C0.295892 20.9877 0.306214 31.4106 0.306214 31.4106C0.306214 32.243 0.333739 32.9915 0.385348 33.698C0.657156 37.6223 2.54949 40.4449 6.00386 42.0923C8.83548 43.4354 12.0043 43.7431 15.4277 43.0086C17.3826 42.5839 19.2089 41.6892 20.7537 40.3994C21.2952 39.9542 21.7857 39.4486 22.216 38.892V40.5568C22.1948 41.039 22.1419 41.5193 22.0577 41.9943C22.0199 42.2357 21.982 42.477 21.9545 42.6939L21.896 43.1765H23.4649C27.0053 43.4179 29.5066 46.5517 29.5066 50.1927C29.5066 53.9422 26.7542 56.9011 23.0142 56.9011C19.2743 56.9011 15.6857 54.0751 15.4449 50.1018V49.6681H14.2648V50.0983C14.3102 52.4262 15.2518 54.6432 16.8873 56.2733C18.5229 57.9033 20.722 58.8163 23.0125 58.8163C25.3029 58.8163 27.5021 57.9033 29.1377 56.2733C30.7732 54.6432 31.7148 52.4262 31.7602 50.0983C31.8062 47.9997 31.0359 45.9674 29.6167 44.4427C28.9013 43.6562 28.0544 43.005 27.1154 42.519Z" fill="white"/>
<path d="M190.266 31.8961C189.715 28.8252 187.744 26.6497 184.416 25.4885C183.959 25.325 183.49 25.1998 183.013 25.1142C181.547 24.9009 177.146 24.9323 175.918 24.9183C175.918 21.2214 175.935 11.7359 175.946 11.6624H185.387C186.168 11.6624 186.656 11.6834 187.069 12.243L187.778 13.2119V10.0186H176.18H173.482L173.541 10.4732C173.568 10.7006 173.606 10.9139 173.64 11.1203C173.694 11.4106 173.73 11.7037 173.751 11.9982C173.751 12.0402 173.751 40.9199 173.751 40.9793C173.726 41.3291 173.671 41.7138 173.613 42.0881C173.579 42.3119 173.541 42.5393 173.517 42.7526L173.458 43.2038H173.933C173.933 43.2038 179.276 43.2283 179.799 43.2038C180.813 43.2097 181.825 43.1254 182.823 42.952C188.27 41.9167 191.25 37.4643 190.266 31.8961ZM187.936 36.9151C187.317 39.0697 185.782 40.4477 183.25 41.1332C182.474 41.3432 181.676 41.4606 180.873 41.483C179.627 41.518 178.395 41.511 177.088 41.504H175.939C175.911 41.2731 175.891 41.0493 175.884 40.8255V26.5937C178.08 26.5142 180.279 26.5843 182.466 26.8036C182.514 26.8036 187.052 27.1288 188.112 32.3018C188.429 33.8313 188.365 35.4171 187.926 36.9151H187.936Z" fill="white"/>
<path d="M46.634 39.899L45.9252 40.8678C45.8349 40.994 45.7244 41.104 45.5984 41.1931C45.2756 41.3455 44.9218 41.4175 44.5662 41.403H33.9553V26.8599C35.5346 26.8599 41.3871 26.8599 44.0157 26.8599C44.5271 26.8921 45.0285 27.0189 45.4951 27.2342L46.0628 27.5105V24.4536L45.4917 24.7404C45.0257 24.9613 44.5194 25.0804 44.0054 25.0901C41.1462 25.1146 35.4967 25.0901 33.9553 25.0901V11.7223H44.5421C44.8977 11.7077 45.2515 11.7797 45.5743 11.9321C45.7003 12.0213 45.8108 12.1312 45.9011 12.2574L46.6099 13.2262V9.98047H31.5091L31.5641 10.4317C31.5882 10.6485 31.6226 10.8654 31.6536 11.0822C31.7309 11.513 31.7757 11.9491 31.7878 12.3868C31.8061 21.835 31.8061 31.2786 31.7878 40.7174C31.7759 41.1632 31.7311 41.6075 31.6536 42.0465C31.6192 42.2704 31.5882 42.4907 31.5607 42.7111L31.5091 43.1587H46.6237L46.634 39.899Z" fill="white"/>
</svg>
