<svg width="198" height="59" viewBox="0 0 198 59" fill="none" xmlns="http://www.w3.org/2000/svg">
<path d="M97.4173 26.2332C97.4173 20.018 95.7624 16.0902 91.5201 12.1799C91.4116 11.9302 91.2729 11.6952 91.1072 11.4803C91.0494 11.4035 90.9965 11.3229 90.949 11.239C90.85 11.0595 90.7348 10.8897 90.6049 10.7319C90.4556 10.5687 90.3512 10.3684 90.3021 10.1513C90.2493 9.88873 90.2423 9.61879 90.2815 9.3538C90.3527 8.97759 90.3045 8.58813 90.1439 8.24156C90.046 8.07708 89.9167 7.93416 89.7637 7.82123C89.6107 7.70831 89.4369 7.62765 89.2528 7.58401C89.1511 7.55805 89.0476 7.54051 88.9431 7.53155C89.0085 6.05206 88.6507 4.9748 87.9109 4.49213C87.7305 4.35696 87.517 4.27472 87.2937 4.25437C87.0705 4.23402 86.846 4.27633 86.6448 4.37671C86.6277 4.07571 86.5458 3.7822 86.4049 3.51689C86.264 3.25158 86.0675 3.02094 85.8294 2.84126C85.4884 2.61139 85.2432 2.26125 85.1412 1.85843C85.0341 1.47136 84.8261 1.12091 84.5391 0.84413C84.2186 0.541735 83.8371 0.31404 83.4211 0.176916C83.0052 0.0397925 82.5648 -0.00346014 82.1307 0.0501736C81.5891 0.113373 81.0875 0.371411 80.7166 0.777675C80.3818 0.629494 80.0268 0.533965 79.6638 0.494369C79.4613 0.310694 79.2142 0.185324 78.948 0.131215C78.6819 0.0771052 78.4064 0.0962187 78.1499 0.18658C77.5817 0.368514 77.064 0.684978 76.6395 1.10995L76.4606 1.26734L76.4331 1.28833C76.3867 1.2113 76.3442 1.13192 76.3058 1.05049C76.2334 0.832561 76.0886 0.647057 75.8963 0.525848C75.2426 0.211063 74.4169 0.774178 73.8629 1.40724C73.309 2.04031 73.0957 2.66988 72.8307 3.96749C72.5081 3.75032 72.1617 3.57191 71.7986 3.43585C71.5611 3.36683 71.3407 3.24765 71.1517 3.08609C70.6873 2.64889 70.2365 2.23618 69.5931 2.25716C69.273 2.27361 68.963 2.37704 68.6955 2.55667C68.4281 2.73629 68.2129 2.98555 68.0724 3.27846C67.9524 3.55464 67.9377 3.86628 68.0311 4.15286C68.0972 4.35017 68.0972 4.56414 68.0311 4.76145C67.9867 4.87161 67.9338 4.97804 67.8728 5.07973C67.5609 5.57048 67.3959 6.14281 67.398 6.7271V6.77956C67.3019 6.72464 67.2005 6.68009 67.0953 6.64666C66.8751 6.5802 66.7856 6.4368 66.6377 6.17098C66.5518 5.96513 66.4258 5.77907 66.2673 5.62399C66.1089 5.46891 65.9212 5.34802 65.7156 5.2686C64.6559 4.91884 64.1054 6.95095 64.0469 6.99642C63.9681 7.05091 63.8736 7.07679 63.7785 7.06986C63.564 7.06302 63.3549 7.13928 63.1936 7.28322C62.7463 7.69594 62.9631 8.39546 63.2831 9.44474L63.3897 9.7945C63.8611 11.3439 63.9918 11.5433 64.3324 11.9455L64.477 12.1204C64.501 12.1484 64.5286 12.1729 64.5561 12.2009C60.7198 15.8803 58.7071 20.714 58.7071 26.2262C58.7125 31.4452 60.7544 36.4488 64.3846 40.1392C68.0148 43.8295 72.9369 45.9052 78.0708 45.9108C78.9154 45.9105 79.759 45.8532 80.5962 45.7394C80.8763 46.1069 81.1076 46.5102 81.2843 46.9391C81.7041 47.9673 81.7694 48.6494 81.9724 50.671C82.0068 51.0208 82.0447 51.4335 82.0929 51.8847L83.3108 51.7098C83.1594 50.5906 83.101 49.8106 83.0562 49.1845C83.0218 48.4212 82.9193 47.6626 82.75 46.9181C82.75 46.8551 82.6089 46.3689 82.3647 45.4211C86.6378 44.4233 90.4523 41.983 93.1859 38.4984C95.9196 35.0137 97.4112 30.6903 97.4173 26.2332ZM89.4351 8.6193C89.5188 8.82544 89.5356 9.05331 89.4833 9.26986C89.4341 9.62494 89.4469 9.98606 89.5211 10.3366C89.5968 10.6699 89.7528 10.9789 89.9753 11.2355C90.0731 11.3584 90.1606 11.4894 90.2368 11.6272C90.3029 11.7484 90.3764 11.8652 90.457 11.977C90.7632 12.4002 91.1795 12.9808 90.801 15.0234C90.3847 17.2374 89.6553 17.7061 89.4248 17.86L89.3181 17.9334C88.9053 18.2517 88.1655 18.6679 86.4796 18.584C86.148 18.5418 85.8251 18.4462 85.5231 18.3007C85.3167 18.2132 85.0965 18.1258 84.8591 18.0488C85.0208 17.9124 85.1825 17.7725 85.3408 17.6291C86.3784 16.7652 87.2437 15.7073 87.8903 14.5128C88.4545 13.4355 89.6106 11.1935 88.7745 8.80468C88.7229 8.65778 88.661 8.52137 88.6025 8.38496C88.7539 8.34703 88.9121 8.34703 89.0635 8.38496C89.2069 8.41521 89.3371 8.49117 89.4351 8.60182V8.6193ZM90.3572 21.9102C90.4013 22.1246 90.3931 22.3468 90.3331 22.5573C90.2368 22.8336 90.0441 22.956 89.5074 23.2568C89.2287 23.4177 88.8812 23.6065 88.4752 23.9108C88.0946 24.1693 87.7314 24.4533 87.388 24.7607C87.1733 24.9579 86.9432 25.1368 86.6998 25.2959C85.4612 26.0933 83.5414 26.2297 82.5711 25.6037C82.641 25.6073 82.7111 25.6073 82.781 25.6037C83.4538 25.554 84.1023 25.3274 84.663 24.9461C85.0862 24.6908 85.5885 24.7957 86.0392 24.8902C86.49 24.9846 86.9544 25.0825 87.2606 24.7223C87.436 24.5114 87.598 24.2894 87.7458 24.0577C87.8687 23.8358 88.035 23.6418 88.2343 23.4876C88.3879 23.3903 88.566 23.3404 88.747 23.3442C89.0553 23.3439 89.3559 23.2461 89.6071 23.0644C89.9512 22.8056 89.8824 21.7738 90.2333 21.3961C90.2716 21.3446 90.3142 21.2966 90.3606 21.2526C90.327 21.4598 90.3258 21.6712 90.3572 21.8787V21.9102ZM67.8694 24.6313C67.8516 24.5772 67.8229 24.5274 67.7852 24.485C67.7474 24.4427 67.7015 24.4088 67.6502 24.3855C67.5989 24.3622 67.5434 24.3499 67.4872 24.3495C67.4311 24.3491 67.3754 24.3606 67.3238 24.3831C67.2722 24.4057 67.2258 24.439 67.1875 24.4807C67.1491 24.5225 67.1198 24.5719 67.1012 24.6258C67.0826 24.6797 67.0752 24.7369 67.0796 24.7939C67.0839 24.8508 67.0998 24.9062 67.1262 24.9566C67.229 25.1987 67.2624 25.4655 67.2226 25.7261C67.2226 25.7611 67.1985 25.796 67.1916 25.8345C66.7739 25.1485 66.2773 24.5157 65.7121 23.9493C66.2041 23.4002 66.3555 22.5503 66.4966 21.7423C66.5379 21.4975 66.586 21.2422 66.6411 20.9903C67.5281 21.8647 68.5952 22.5278 69.7652 22.9315C70.3998 23.1201 71.0528 23.2373 71.7125 23.2813C71.544 23.3372 71.4063 23.3932 71.2825 23.4456C71.0292 23.5564 70.7651 23.6396 70.4946 23.694C70.0043 23.7939 69.5047 23.8385 69.0048 23.8269C68.5747 23.8269 68.1653 23.8269 68.0724 24.2466C68.0578 24.3175 68.0576 24.3907 68.0718 24.4616C68.086 24.5326 68.1143 24.5999 68.155 24.6593C68.4033 24.9429 68.7275 25.1468 69.088 25.2462C69.4485 25.3456 69.8297 25.3361 70.1849 25.2189C70.3099 25.1598 70.4516 25.1487 70.584 25.1875C70.7062 25.2481 70.8216 25.322 70.9281 25.4078C71.3718 25.7725 71.9199 25.9811 72.4901 26.0024C72.659 26.0017 72.8274 25.9829 72.9925 25.9464H73.0406L72.8204 26.0898L72.731 26.1458C71.4304 26.9782 71.0829 27.1951 71.076 27.8002C71.076 27.9785 71.076 28.4997 72.7172 29.0488C72.8627 29.1022 73.0168 29.1271 73.1714 29.1223C73.3744 29.1223 73.6909 29.0978 74.2483 29.0418C74.4408 29.0238 74.6317 28.991 74.8194 28.9439C74.9777 28.9054 75.1635 28.8564 75.6073 28.79C76.0993 28.7165 76.378 28.6921 76.5982 28.6746C76.8007 28.6643 77.0021 28.6374 77.2003 28.5941C78.0346 28.3698 78.7814 27.8914 79.3404 27.2231C79.4161 27.1391 79.4883 27.0552 79.5571 26.9677C79.8308 26.9544 80.0999 26.8917 80.3519 26.7824C80.4788 27.3772 80.5297 27.9861 80.5033 28.5941C80.4669 29.755 80.3519 30.9119 80.1592 32.0567L80.0698 32.6374C79.7643 34.9113 79.7032 37.2123 79.8874 39.4997V39.65C79.9967 40.8836 80.205 42.106 80.5102 43.305C80.5118 43.326 80.5118 43.347 80.5102 43.368L80.4379 43.2561C79.6328 42.0564 78.7692 40.8707 77.9366 39.7235C77.1384 38.6287 76.3161 37.499 75.5488 36.3623C74.7403 35.1661 73.9008 34.0294 73.0647 32.9941C73.1799 32.828 73.2725 32.6468 73.34 32.4555C73.4727 32.0275 73.4727 31.5684 73.34 31.1404C73.3241 31.0889 73.2985 31.0412 73.2645 30.9998C73.2306 30.9584 73.1889 30.9242 73.1419 30.8992C73.095 30.8742 73.0436 30.8589 72.9908 30.854C72.938 30.8492 72.8848 30.855 72.8342 30.8711C72.7836 30.8871 72.7366 30.9132 72.6959 30.9477C72.6552 30.9823 72.6216 31.0246 72.597 31.0724C72.5724 31.1201 72.5573 31.1723 72.5525 31.226C72.5478 31.2797 72.5534 31.3338 72.5693 31.3852C72.6514 31.6504 72.6514 31.9349 72.5693 32.2002C72.5693 32.2456 72.5314 32.2876 72.5142 32.3296C72.2802 32.0567 72.0497 31.7874 71.8261 31.5321C71.4637 31.1287 71.0932 30.7335 70.7148 30.3464C70.5001 30.0911 70.2703 29.8493 70.0267 29.6224C70.002 29.595 69.9755 29.5693 69.9475 29.5455L69.8959 29.507C69.6161 29.2789 69.3041 29.0949 68.9704 28.9614C68.6169 28.1549 68.2028 27.3773 67.7318 26.6355C67.9194 26.3362 68.0314 25.9944 68.0578 25.6405C68.0842 25.2866 68.0242 24.9315 67.8832 24.6069L67.8694 24.6313ZM65.141 22.183C65.0983 22.2846 65.018 22.3651 64.9174 22.4069C64.8586 22.4237 64.7969 22.4262 64.737 22.414C64.6772 22.4018 64.6211 22.3754 64.5733 22.3369C64.4491 22.2425 64.345 22.1235 64.2671 21.9871C64.2178 21.8731 64.13 21.7808 64.0195 21.7269C63.9091 21.673 63.7833 21.6611 63.665 21.6933C63.462 21.7668 63.2108 22.204 63.0663 22.6762C63.0422 22.6762 62.4436 22.9315 62.1993 22.1131C62.0789 21.7073 62.1993 21.4625 62.4573 21.0638C62.598 20.8647 62.7136 20.6485 62.8014 20.4202C63.0441 20.4428 63.2887 20.4287 63.5273 20.3782C64.1535 20.2348 64.5595 20.3013 64.8348 20.5986C65.0174 20.8026 65.1422 21.0531 65.1961 21.3234C65.25 21.5937 65.231 21.8738 65.141 22.134V22.183ZM68.905 7.8918C69.0545 7.75737 69.2119 7.63239 69.3764 7.51756C69.4727 7.44411 69.5691 7.37416 69.6654 7.29371C69.6649 7.76794 69.6292 8.24146 69.5587 8.71024C69.478 9.0344 69.343 9.34202 69.1596 9.61962C68.8465 10.1198 68.6504 10.536 68.7399 11.7741C68.8076 12.4497 68.9472 13.1158 69.1562 13.7608C68.5678 12.8899 68.1997 12.2673 68.0724 11.5293C68.0621 11.5048 67.6458 8.99704 68.905 7.84284V7.8918ZM76.9388 3.75414C76.8184 2.72234 77.5306 1.84444 78.8449 1.41074C78.9838 1.36872 79.1269 1.34291 79.2716 1.33379C79.3313 1.44467 79.3786 1.56199 79.4126 1.68355C79.4826 2.11341 79.4151 2.55476 79.22 2.94269H79.017C78.1947 2.96718 77.7508 3.57926 77.3207 4.17385C77.1954 4.33765 77.0805 4.50938 76.9767 4.688C76.9874 4.35989 76.9747 4.03142 76.9388 3.70517V3.75414ZM87.9969 9.10197C88.0742 9.31913 88.1329 9.54263 88.1724 9.77002C87.7699 8.95507 86.9957 8.53886 86.4177 8.23107C86.1996 8.13017 85.9921 8.00713 85.7984 7.86382C85.5961 7.69451 85.4345 7.48045 85.326 7.23798C85.2175 6.99552 85.1649 6.73106 85.1722 6.46478C85.2548 6.46478 85.3374 6.46478 85.4234 6.49276C86.9441 6.69562 87.6907 8.1856 87.9969 9.05301V9.10197ZM81.477 19.245C81.2203 18.5765 80.7612 18.0082 80.1661 17.6221C80.3004 17.466 80.4705 17.346 80.6614 17.2728C80.8523 17.1995 81.058 17.1754 81.2602 17.2024C81.5125 17.2285 81.7664 17.1734 81.9862 17.045L82.3303 16.7617C82.6344 16.4755 82.9959 16.2595 83.39 16.1287C83.8717 16.0167 84.7146 16.2441 85.3305 16.4784C85.1378 16.6603 84.952 16.8282 84.7834 16.9786C83.7992 17.8869 82.6841 18.6371 81.477 19.2031V19.245ZM74.699 37.0758C74.4375 36.9849 74.1657 36.8869 73.9249 36.7855L73.8113 36.7365C72.9821 36.3868 71.0588 35.5998 69.7067 31.004C69.8098 30.9312 69.9045 30.8467 69.9888 30.7521C70.1574 30.9235 70.3329 31.1019 70.4911 31.2733C71.9969 33.128 73.4016 35.065 74.699 37.0758ZM80.9265 24.6873C80.7166 25.2714 80.5618 25.6946 80.1902 25.9185C80.6272 24.9676 80.8336 23.9242 80.7923 22.8755C80.898 22.8094 80.9981 22.7346 81.0916 22.6517C81.3084 23.0854 81.1054 24.1976 80.9265 24.6943V24.6873ZM78.5903 26.52C78.625 26.5785 78.6679 26.6316 78.7176 26.6774C78.2763 27.2012 77.69 27.5778 77.0352 27.7582C76.875 27.79 76.7129 27.811 76.55 27.8212C76.3264 27.8212 76.0202 27.8631 75.5007 27.9436C75.0362 28.0135 74.4065 28.1639 74.1829 28.1849C73.1507 28.2898 73.0991 28.2688 72.9546 28.2234C72.585 28.1195 72.2358 27.9514 71.9224 27.7267C73.0991 26.8838 76.495 24.3166 76.5982 24.2081C76.5982 24.2081 77.245 23.7954 77.5272 23.6555C77.76 23.5442 78.0131 23.4834 78.2703 23.4771C78.4217 23.4771 78.5628 23.4771 78.697 23.4771C78.9473 23.4888 79.1979 23.4617 79.4402 23.3967C79.5537 23.3757 79.6604 23.3512 79.7636 23.3267C79.6525 23.6554 79.5239 23.9777 79.3782 24.2921C79.2189 24.6381 79.042 24.9755 78.8484 25.3029C78.5662 25.7646 78.3495 26.1388 78.5903 26.527V26.52ZM66.0218 15.1179C66.0693 14.8125 66.0923 14.5037 66.0906 14.1945C66.0906 14.0056 66.1181 13.8447 66.125 13.7118C66.8476 13.9656 67.5181 14.3521 68.1034 14.852C68.1977 14.9317 68.2873 15.0169 68.3717 15.1074L68.5128 15.2648L68.7089 15.4921C68.966 15.8286 69.2696 16.1255 69.6103 16.3735C70.0975 16.7261 70.6132 17.0361 71.1517 17.3004C71.1035 17.4123 71.0688 17.5297 71.0485 17.6501C70.9591 18.0943 71.0692 18.4231 71.279 19.0177L71.3582 19.252C71.4594 19.5249 71.5118 19.8139 71.513 20.1054C71.5145 20.3615 71.5575 20.6156 71.6403 20.8574C71.6906 20.9961 71.7516 21.1306 71.8226 21.2596C71.1861 21.3436 70.381 21.3681 69.0977 20.7L69.0151 20.6581C66.906 19.5773 65.8773 17.9229 65.9495 15.7404C65.9736 15.5201 65.9977 15.3067 66.0218 15.1179ZM77.9091 11.6202C77.9435 11.6202 78.7589 11.7846 78.9585 12.3198C79.0445 12.5401 78.9241 12.8829 78.7864 13.2781C78.6952 13.5196 78.6171 13.7659 78.5525 14.0161C78.3667 14.7576 78.2084 15.9958 78.7004 17.0695L78.4149 17.0136C78.1759 16.9754 77.934 16.9602 77.6923 16.9681C77.5754 16.9853 77.4561 16.9683 77.3483 16.9191C77.1116 16.7993 76.9214 16.6023 76.8081 16.3595C76.6294 16.0116 76.3495 15.7282 76.0064 15.5481C75.8 15.4501 75.4697 15.3662 74.7368 15.4991C74.9295 15.1659 75.0601 14.7996 75.1222 14.4183C75.4215 13.0822 75.5213 12.9598 75.8516 12.5541L75.917 12.4807C76.1541 12.1827 76.4601 11.9491 76.8078 11.8008C77.1554 11.6524 77.5338 11.594 77.9091 11.6307V11.6202ZM84.2948 6.48227C84.2226 7.25174 83.968 8.37097 83.101 8.58083C82.7491 8.68562 82.4224 8.86302 82.141 9.10197C82.1888 8.84282 82.2232 8.58131 82.2442 8.31851C82.2471 8.16655 82.2799 8.01672 82.3406 7.87781C82.5479 7.51558 82.83 7.20329 83.1673 6.96239C83.5047 6.72149 83.8893 6.5577 84.2948 6.48227ZM81.1983 14.4183C81.1015 14.0611 81.0655 13.6897 81.0916 13.3201C81.0916 13.1522 81.2774 12.5226 81.5114 11.6447C81.5458 11.5118 81.5802 11.3929 81.6077 11.295C81.9518 10.3086 82.7294 9.54617 83.328 9.40626C83.6747 9.30317 83.9914 9.11589 84.251 8.86057C84.5105 8.60526 84.7051 8.28957 84.8178 7.94077C84.9546 8.13356 85.1154 8.30755 85.2961 8.45841C85.534 8.63836 85.7886 8.79416 86.0564 8.9236C86.6276 9.22439 87.2744 9.56715 87.529 10.2352C87.8456 11.0606 87.3673 11.6867 86.8065 12.3128C86.702 12.4231 86.6043 12.5399 86.514 12.6625C86.1403 13.1956 85.9548 13.8415 85.9876 14.4953C85.9899 14.9334 85.9284 15.3695 85.8053 15.7894C85.1963 15.5411 84.0471 15.1423 83.2283 15.3312C82.7151 15.4836 82.2439 15.7554 81.852 16.1252L81.5424 16.3735C81.4519 16.3799 81.361 16.3799 81.2706 16.3735H81.0125C81.1395 16.1295 81.2343 15.8696 81.2946 15.6005C81.3498 15.2041 81.3169 14.8001 81.1983 14.4183ZM79.7464 22.4628C80.1799 21.7143 80.5171 20.3643 80.056 19.5528C79.9356 19.343 79.5709 18.7029 77.9022 17.888L77.6958 17.7865C77.8902 17.7788 78.085 17.7905 78.2772 17.8215C78.789 17.8997 79.2823 18.0728 79.7326 18.3322C80.8095 18.9757 81.3187 20.6825 80.7648 21.7738C80.7269 21.8717 80.5102 22.232 79.7464 22.4628ZM75.8791 22.5608C75.3367 22.5387 74.8022 22.4204 74.2999 22.211C73.6118 21.8892 72.7034 21.445 72.4041 20.5951C72.348 20.4334 72.3201 20.2629 72.3215 20.0914C72.3169 19.7176 72.2494 19.3474 72.122 18.9967L72.0394 18.7589C71.9809 18.5805 71.9327 18.4441 71.8983 18.3217C72.1617 18.3499 72.4281 18.3216 72.68 18.2384C72.9319 18.1552 73.1638 18.0192 73.3606 17.839C73.5778 17.6342 73.7259 17.3649 73.7838 17.0695L73.8079 16.9786C73.9145 16.9576 74.3584 16.9786 75.9135 18.1293L76.0408 18.2272C76.7294 18.8207 77.6015 19.1489 78.5043 19.1541C78.8437 19.3533 79.1352 19.627 79.3576 19.955C79.6466 20.4622 79.3335 21.6304 78.9894 22.141C78.8002 22.4139 77.3723 22.6377 76.0408 22.5608C75.987 22.5571 75.933 22.5571 75.8791 22.5608ZM72.4385 17.3143C72.522 17.2754 72.6036 17.2322 72.6828 17.1849C72.786 17.1325 72.872 17.094 72.9443 17.0625C72.9207 17.1321 72.8805 17.1946 72.8273 17.2444C72.6379 17.416 72.3929 17.5106 72.1392 17.5102C72.2312 17.4295 72.3316 17.3592 72.4385 17.3004V17.3143ZM74.7162 16.3455C75.0215 16.2492 75.346 16.2336 75.6589 16.3C75.8576 16.4113 76.0174 16.5823 76.1165 16.7897C76.175 16.8841 76.2404 16.9856 76.3161 17.087C75.7966 16.8059 75.2626 16.5537 74.7162 16.3315V16.3455ZM68.6504 21.3995L68.7261 21.438C69.4967 21.8772 70.3615 22.1174 71.2446 22.1375C71.5548 22.1338 71.8642 22.1058 72.1701 22.0536L72.4385 22.0221C72.661 22.2182 72.9018 22.3916 73.1576 22.5398C72.1008 22.5395 71.0485 22.4008 70.0267 22.1271C69.2247 21.8482 68.4746 21.4344 67.8075 20.9029C68.078 21.0862 68.3595 21.2521 68.6504 21.3995ZM75.9583 23.3897H76.323C76.034 23.5751 75.7312 23.7884 75.4146 24.0263C74.6115 24.5062 73.7465 24.8699 72.8445 25.107C72.5892 25.1561 72.3262 25.1443 72.076 25.0727C71.8259 25.0011 71.5955 24.8716 71.4029 24.6943C71.2534 24.5815 71.0932 24.4843 70.9247 24.404C71.1486 24.3423 71.3682 24.2652 71.5818 24.1731C71.856 24.0552 72.1405 23.9638 72.4316 23.9003C74.1588 23.5401 75.4731 23.3442 75.9583 23.3897ZM86.7824 14.5093C86.745 14.0114 86.8815 13.516 87.1678 13.1102C87.209 13.0508 87.2985 12.9528 87.3914 12.8444C87.6292 12.5936 87.8434 12.3208 88.0313 12.0295C87.8123 12.7439 87.5206 13.4332 87.1609 14.0861C87.037 14.3204 86.9063 14.5373 86.7721 14.7436C86.7755 14.6702 86.779 14.5862 86.7824 14.5093ZM81.6215 7.55253C81.5251 7.77339 81.4702 8.01066 81.4598 8.25206C81.4197 8.71353 81.3426 9.17091 81.2293 9.61962C81.1639 9.89243 81.1226 10.0358 81.0504 10.3017C80.9781 10.5675 80.8921 10.8508 80.7407 11.4174C80.5538 12.0167 80.4055 12.6277 80.2969 13.2466C80.2628 13.7017 80.3047 14.1593 80.4207 14.6002C80.5086 14.8766 80.531 15.1702 80.4861 15.4571C80.3111 16.0293 80.0098 16.5533 79.6053 16.9891C79.0066 16.0972 79.1752 14.8905 79.3473 14.191C79.4057 13.9601 79.4814 13.7398 79.5571 13.5299C79.7429 12.9983 79.9218 12.4807 79.7223 11.991C79.3782 11.0851 78.2841 10.8403 78.0673 10.7983C77.568 10.7162 77.056 10.7805 76.5913 10.9837C76.3969 10.3761 76.3381 9.73207 76.4193 9.09848V8.94808C76.5063 8.4485 76.6579 7.96279 76.87 7.50357C76.9635 7.28682 77.045 7.06497 77.1143 6.83902C77.1625 6.65015 77.2038 6.48926 77.245 6.30739C77.3472 5.67419 77.5961 5.07477 77.971 4.55859C78.4183 3.9465 78.6591 3.67369 79.041 3.6632C79.21 3.6515 79.3791 3.68354 79.5325 3.75633C79.6859 3.82912 79.8187 3.94028 79.9184 4.07941C80.2126 4.40559 80.5812 4.65305 80.9919 4.79992C81.3217 4.87512 81.6663 4.84583 81.9793 4.71598C82.5642 4.5376 82.9461 4.45715 83.3968 4.98879C83.5634 5.21628 83.6689 5.48384 83.7031 5.76526C83.2528 5.90213 82.8349 6.13134 82.4751 6.43873C82.1153 6.74612 81.8213 7.12518 81.6112 7.55253H81.6215ZM75.6589 10.6024C75.7133 10.8764 75.7857 11.1463 75.8757 11.4104C75.6625 11.5631 75.4694 11.743 75.3011 11.9455L75.2392 12.0225C74.816 12.5366 74.668 12.7675 74.3412 14.2295C74.1485 15.0724 74.0969 15.2158 73.3847 15.3207C72.2149 15.4886 71.7401 15.8628 71.5096 16.2581C70.1333 14.8765 69.6379 12.7605 69.5553 11.6657C69.4727 10.571 69.6275 10.3681 69.8512 10.0114C70.0832 9.66296 70.2532 9.27584 70.3535 8.86763C70.4321 8.41843 70.4736 7.96331 70.4774 7.50707C70.713 7.80904 71.0315 8.03304 71.3926 8.15062C72.2114 8.39546 72.8514 8.15062 73.801 7.22026C74.0481 7.67512 74.2124 8.17157 74.2861 8.68576C74.3618 9.5077 74.4685 10.1582 75.0775 10.466C75.2556 10.5538 75.4507 10.6004 75.6486 10.6024H75.6589ZM73.2505 6.61867C72.3731 7.48958 72.0256 7.48258 71.6197 7.36017C71.2137 7.23775 70.8937 6.71661 70.6976 6.37734C70.6528 6.29411 70.6034 6.21353 70.5496 6.136C70.7629 5.78624 70.8283 5.72679 70.9935 5.72679C71.0755 5.76672 71.1529 5.816 71.224 5.87368C71.6322 6.18501 72.1016 6.40331 72.6002 6.51375C72.8107 6.56491 73.0246 6.59998 73.2402 6.61867H73.2505ZM65.867 30.5563C65.1444 30.168 64.7316 29.4091 64.7694 29.1572C65.1463 29.1117 65.5278 29.1235 65.9014 29.1922C65.7958 29.4025 65.7379 29.6342 65.7319 29.8703C65.726 30.1063 65.7721 30.3407 65.867 30.5563ZM66.5998 29.6294C66.7812 29.4753 67.0143 29.3988 67.2501 29.4161C67.3306 29.417 67.4111 29.4229 67.4909 29.4335C67.6996 29.4642 67.9001 29.5373 68.0804 29.6484C68.2607 29.7596 68.4172 29.9066 68.5403 30.0806C68.6126 30.28 68.6745 30.4618 68.7261 30.6297C68.6308 30.6757 68.5332 30.7166 68.4337 30.7521C67.9371 30.9011 67.4143 30.9369 66.9026 30.8571C66.5929 30.3744 66.4656 29.7833 66.5998 29.6294ZM68.7123 31.5251C68.6322 31.5917 68.5398 31.6411 68.4405 31.6706C68.3412 31.7 68.2371 31.7088 68.1343 31.6965H68.0724C68.2913 31.6635 68.5059 31.606 68.7123 31.5251ZM90.2815 20.3118C89.9427 20.4702 89.6629 20.735 89.4833 21.0673C89.364 21.3576 89.2864 21.6639 89.2528 21.9767C89.2115 22.2635 89.1908 22.3474 89.1255 22.3964C88.9942 22.4846 88.8389 22.5287 88.6816 22.5223C88.3662 22.5262 88.058 22.6181 87.7905 22.7881C87.4954 23.0015 87.249 23.2771 87.068 23.596C86.9446 23.7893 86.8102 23.975 86.6654 24.1522C86.5072 24.1457 86.3503 24.121 86.1975 24.0787C85.6676 23.9703 84.9451 23.8164 84.2501 24.2361C83.476 24.7013 82.836 24.8797 82.4851 24.7223C82.4163 24.6908 82.2064 24.5964 82.1032 24.1102C82.1488 23.4328 82.0306 22.7544 81.7591 22.134C81.7075 22.0229 81.6704 21.9053 81.649 21.7843C81.8334 21.2032 81.8619 20.5826 81.7316 19.9865C82.28 19.7403 82.8101 19.4539 83.3177 19.1296C83.5035 19.2905 83.765 19.4794 84.1297 19.7592C85.0415 20.4587 86.3042 20.1999 87.9144 19.6298C88.5365 19.4089 89.1348 19.1241 89.7 18.7798C90.2609 18.4511 90.3882 18.3846 90.7322 18.5385C90.9475 18.6495 91.1215 18.8288 91.2277 19.0492C91.1761 19.7662 90.7357 20.0355 90.2815 20.3118ZM84.0574 18.6854C84.4529 18.7501 84.8381 18.8677 85.2032 19.0352C85.4642 19.1481 85.7333 19.2405 86.0083 19.3115C85.3649 19.4129 84.9279 19.343 84.6045 19.1016L84.0574 18.6854ZM86.9613 5.17067C87.068 5.00628 87.2434 5.00628 87.4808 5.17067C87.9591 5.48195 88.1965 6.34586 88.1449 7.50707C87.7659 6.88777 87.2408 6.37443 86.6173 6.01359C86.7084 5.72326 86.8235 5.44128 86.9613 5.17067ZM82.2511 0.84413C82.5697 0.805455 82.8927 0.838005 83.1976 0.939502C83.5024 1.041 83.7818 1.20899 84.0162 1.43173C84.2038 1.62515 84.3359 1.86704 84.3981 2.13125C84.5524 2.70054 84.8997 3.19606 85.3786 3.53029C85.6986 3.75414 86.0151 4.32774 85.7984 5.72329C85.7158 5.7023 85.6367 5.67432 85.5507 5.66033C85.4161 5.64042 85.2806 5.62757 85.1447 5.62186C85.0862 4.01995 84.8557 2.77481 83.2833 2.35509C82.88 2.27722 82.4626 2.35584 82.1135 2.57544C82.0146 2.07131 81.7758 1.60648 81.4254 1.23586C81.6572 1.02633 81.9442 0.890186 82.2511 0.84413ZM80.5824 1.59611C81.1845 1.87592 81.3256 2.68737 81.391 3.0791C81.4288 3.30295 81.4701 3.53728 81.735 3.61773L81.9759 3.68069L82.1445 3.5198C82.2924 3.38689 82.7879 3.03713 83.0872 3.12107C83.8682 3.32743 84.1847 3.74364 84.3017 4.94332C84.2306 4.778 84.1367 4.62374 84.023 4.48514C83.2076 3.52329 82.3371 3.78561 81.7591 3.957C81.6008 4.02228 81.4311 4.0544 81.2602 4.05143C80.9652 3.94509 80.7021 3.76318 80.4964 3.52329C80.3509 3.36822 80.1881 3.23089 80.0113 3.11407C80.2501 2.58975 80.3188 2.00182 80.2074 1.43522C80.3247 1.47621 80.4396 1.52409 80.5515 1.57863L80.5824 1.59611ZM74.4719 1.94588C74.9089 1.44922 75.3286 1.24635 75.5041 1.24635C75.5282 1.28833 75.5557 1.35128 75.5798 1.39675C75.7071 1.66257 75.8826 2.02632 76.2679 2.09627C76.3476 2.11017 76.4291 2.11017 76.5088 2.09627C76.1972 2.60031 76.0671 3.19853 76.1406 3.78911C76.3023 5.16717 76.0546 5.63235 75.7415 6.23744C75.4986 6.62979 75.3349 7.0673 75.2598 7.52455C75.103 8.21845 75.1582 8.94448 75.4181 9.60563C75.4456 9.66159 75.4697 9.71056 75.4903 9.75952L75.4318 9.73504C75.2633 9.6511 75.1635 9.45173 75.0878 8.61231C74.9717 7.71206 74.6079 6.86342 74.0384 6.16399C74.029 6.15371 74.0186 6.14434 74.0074 6.136C74.0681 6.08871 74.1185 6.02917 74.1554 5.96112C74.2827 5.73028 74.3653 5.24412 73.5774 4.52711C73.8629 2.95318 73.973 2.488 74.4719 1.93188V1.94588ZM68.5782 5.45397C68.6735 5.30113 68.7519 5.1381 68.8121 4.9678C68.9245 4.62844 68.9317 4.26218 68.8328 3.91852C68.8073 3.86385 68.7942 3.80412 68.7942 3.74364C68.7942 3.68317 68.8073 3.62344 68.8328 3.56876C68.9095 3.41704 69.0238 3.28823 69.1643 3.19502C69.3049 3.1018 69.4669 3.04739 69.6344 3.03713C69.9406 3.03713 70.1987 3.25048 70.6219 3.64921C70.8788 3.89415 71.1836 4.08126 71.5164 4.19833C71.9417 4.35223 72.3401 4.57421 72.6966 4.85588C72.6594 5.15808 72.7109 5.46471 72.8445 5.73728H72.7826C72.3822 5.64913 72.0054 5.47371 71.6781 5.22313C71.4858 5.05253 71.2445 4.9495 70.99 4.92933C70.3294 4.92933 70.0542 5.38752 69.8133 5.79324C69.772 5.86319 69.7308 5.93664 69.6826 6.01009C69.4881 6.33649 69.2234 6.6139 68.9085 6.82154C68.7393 6.94253 68.5762 7.07211 68.4199 7.20977C68.315 7.06355 68.2443 6.89486 68.2135 6.71661C68.2095 6.26832 68.3364 5.82892 68.5782 5.45397ZM64.1639 9.53917L64.0538 9.18941C63.8957 8.77396 63.7938 8.33861 63.751 7.8953H63.8267C64.0825 7.88946 64.3307 7.80536 64.5389 7.65396C64.969 7.34618 65.4094 6.08354 65.461 6.05556C65.713 6.16666 65.9171 6.36666 66.0355 6.61867C66.1045 6.80571 66.2153 6.97388 66.3592 7.10986C66.5031 7.24584 66.6762 7.3459 66.8647 7.40214C67.1178 7.52479 67.3428 7.69993 67.5253 7.91629L67.7146 8.09816C66.9301 9.60213 67.2501 11.5748 67.2673 11.6727C67.4176 12.4141 67.7201 13.1148 68.155 13.7293C67.465 13.0982 66.6998 12.5577 65.8773 12.1204C65.5944 11.9886 65.3342 11.8115 65.1066 11.5958C65.0481 11.5188 64.993 11.4594 64.9449 11.4034C64.7075 11.1166 64.6077 10.9977 64.1639 9.53917ZM59.4984 26.2332C59.4984 20.9029 61.4767 16.2336 65.2201 12.701L65.5229 12.8759L65.4954 12.8969C65.436 12.9535 65.3904 13.0235 65.3624 13.1013C65.3343 13.179 65.3245 13.2623 65.3337 13.3446C65.3337 13.5789 65.2993 14.121 65.1892 15.0619C65.1651 15.2717 65.1479 15.4921 65.141 15.7159C65.024 16.9051 64.9827 18.514 65.7328 19.8256C65.8497 20.0251 65.9808 20.2157 66.125 20.3957C66.1014 20.3982 66.0782 20.4041 66.0562 20.4132C65.9637 20.4561 65.8779 20.5127 65.8016 20.5811C65.6971 20.3662 65.5588 20.1701 65.3922 20.0005C64.6593 19.2555 63.6719 19.4864 63.3278 19.5633C62.9567 19.5787 62.5849 19.5623 62.2165 19.5143C62.0911 19.8883 61.9429 20.2539 61.7726 20.6091C61.4653 21.0158 61.3203 21.5254 61.3666 22.0361C61.3003 21.9899 61.2217 21.9652 61.1413 21.9652C61.0609 21.9652 60.9823 21.9899 60.9159 22.0361L60.6682 22.218L60.768 22.5677C60.9022 23.0329 61.112 23.8094 61.8242 24.0053C62.0934 24.0541 62.337 24.1977 62.5124 24.411C62.6275 24.5432 62.7581 24.6606 62.9012 24.7607C63.2072 24.9655 63.567 25.0715 63.9333 25.065C64.42 25.0484 64.898 24.9293 65.3371 24.7153C66.3142 25.5757 67.5425 27.8911 67.9176 28.6536C67.4536 28.5623 66.9849 28.4981 66.5138 28.4612L66.1938 28.4297C65.0687 28.3003 64.3909 28.2234 64.0778 28.7515C64.008 28.8994 63.9717 29.0614 63.9717 29.2254C63.9717 29.3895 64.008 29.5515 64.0778 29.6994C64.2424 30.1075 64.4885 30.4765 64.8006 30.783C65.1127 31.0894 65.4841 31.3267 65.891 31.4796C66.0755 31.5421 66.264 31.5912 66.4553 31.6265C66.6567 31.8791 66.9055 32.0883 67.1873 32.242C67.4691 32.3958 67.7781 32.4909 68.0965 32.5219H68.2307C68.5742 32.526 68.9095 32.4141 69.1837 32.2036C69.2353 32.3645 69.2938 32.5324 69.3661 32.7178C69.5002 33.0676 69.7101 33.5747 69.9785 34.1483C69.5293 34.4099 69.0288 34.5676 68.5128 34.61C67.6412 34.6678 66.7778 34.4087 66.0768 33.879C66.0341 33.8471 65.9857 33.824 65.9342 33.8111C65.8827 33.7983 65.8293 33.7958 65.7769 33.8039C65.7245 33.812 65.6742 33.8306 65.6288 33.8585C65.5835 33.8863 65.544 33.923 65.5126 33.9664C65.4812 34.0098 65.4585 34.0591 65.4458 34.1114C65.4331 34.1637 65.4307 34.2181 65.4387 34.2714C65.4467 34.3246 65.4649 34.3758 65.4924 34.4219C65.5198 34.468 65.5559 34.5081 65.5986 34.54C66.3654 35.1189 67.2928 35.436 68.2479 35.4459C68.3545 35.4459 68.4612 35.4459 68.5747 35.4459C69.2054 35.3927 69.817 35.2006 70.3673 34.8828C70.7543 35.5527 71.2237 36.1698 71.7642 36.7191C72.4053 37.3707 73.1947 37.8512 74.0625 38.1181C74.8427 38.3629 75.5596 38.781 76.1613 39.3423C76.4778 39.6326 76.55 39.7375 77.2175 40.7413C77.5616 41.2415 78.0192 41.955 78.7245 43.0042C79.2991 43.8577 79.7292 44.4802 80.056 44.9559C79.3911 45.0304 78.7226 45.0677 78.0536 45.0678C73.1392 45.0614 68.4274 43.0758 64.9498 39.5459C61.4722 36.0159 59.512 31.2291 59.4984 26.2332ZM82.1376 44.6306L81.7591 43.1651C81.3325 41.4968 81.1501 39.8669 81.071 36.9254C81.0217 35.7564 81.0816 34.5853 81.2499 33.4278C81.2706 33.2599 81.2912 33.0781 81.3153 32.9137C81.3738 32.403 81.4391 31.9693 81.5011 31.5496C81.6181 30.7626 81.7282 30.0176 81.8073 28.8599C81.8245 28.6291 81.8451 28.3668 81.8658 28.0905C81.9105 27.4889 81.9621 26.8173 81.9931 26.1948H82.0103C82.6576 26.6265 83.4215 26.8418 84.1951 26.8103C85.2295 26.8127 86.2442 26.5234 87.1265 25.9744C87.401 25.7952 87.661 25.5941 87.904 25.3728C88.2302 25.085 88.575 24.8197 88.9362 24.5789C89.3319 24.3061 89.6656 24.1137 89.9306 23.9563C90.5017 23.6275 90.9146 23.3862 91.121 22.8126C91.2235 22.4813 91.2459 22.1298 91.1864 21.7878C91.1589 21.5569 91.1451 21.4205 91.1864 21.3366C91.2829 21.2029 91.3989 21.0849 91.5304 20.9868C91.8144 20.7815 92.0342 20.4974 92.1635 20.1684C92.2778 19.7043 92.2327 19.2144 92.0355 18.7799C91.8384 18.3454 91.5012 17.9925 91.0797 17.7795C90.9599 17.7287 90.8354 17.69 90.7081 17.6641C91.1712 16.8931 91.4777 16.0357 91.6096 15.1423C91.7174 14.6059 91.7727 14.06 91.7747 13.5125C95.2532 17.0101 96.6294 20.6581 96.6294 26.2088C96.625 30.4924 95.1882 34.6473 92.5549 37.9916C89.9216 41.3358 86.2482 43.6707 82.1376 44.6131V44.6306Z" fill="#12463A"/>
<path d="M152.316 9.7945H152.023C147.597 9.80932 143.356 11.609 140.234 14.7985C137.111 17.9881 135.361 22.3068 135.367 26.8068C135.37 28.997 135.803 31.1645 136.642 33.182C137.48 35.1995 138.707 37.0264 140.249 38.5553C143.386 41.6615 147.589 43.4051 151.968 43.417H152.23C161.375 43.2666 168.745 35.4739 168.628 26.0409C168.599 23.8815 168.146 21.7498 167.296 19.7708C166.446 17.7917 165.215 16.0053 163.677 14.5163C160.642 11.4934 156.564 9.79853 152.316 9.7945ZM142.627 15.0934C145.159 12.8037 148.435 11.5478 151.824 11.5678C153.819 11.5685 155.793 11.9872 157.622 12.7978C159.451 13.6083 161.096 14.7934 162.455 16.2791C167.379 21.6549 168.321 31.5496 161.877 37.7054C158.781 40.6504 155.213 41.927 150.929 41.6122C144.505 41.1365 138.742 35.6243 137.81 29.0593C137.666 28.0613 137.576 27.056 137.542 26.0479C137.562 21.7108 139.179 18.2307 142.627 15.0934Z" fill="#12463A"/>
<path d="M197.835 42.0249C197.754 41.5722 197.707 41.1139 197.694 40.6539C197.675 31.1754 197.675 21.698 197.694 12.2218C197.707 11.8232 197.754 11.4264 197.835 11.0361C197.869 10.8333 197.907 10.6269 197.935 10.4241L197.997 9.96588H195.299L195.358 10.4171C195.385 10.6444 195.423 10.8578 195.457 11.0676C195.531 11.4315 195.573 11.8014 195.581 12.1729C195.597 21.6654 195.597 31.1602 195.581 40.6574C195.566 41.1268 195.517 41.5944 195.433 42.0564C195.395 42.2837 195.361 42.5076 195.337 42.7244L195.279 43.1756H197.969L197.914 42.7244C197.904 42.4796 197.869 42.2523 197.835 42.0249Z" fill="#12463A"/>
<path d="M109.466 9.97288V12.9598V13.2536L110.179 12.2848C110.591 11.7252 111.094 11.6937 111.858 11.7042H121.305C121.326 11.8616 121.354 39.4962 121.354 39.9893V40.6888C121.339 41.1585 121.288 41.6262 121.202 42.0879C121.168 42.3152 121.133 42.5391 121.106 42.7524L121.051 43.2036H123.738L123.686 42.7559C123.659 42.5286 123.624 42.2977 123.59 42.0564C123.51 41.6048 123.464 41.1476 123.452 40.6888C123.435 31.6615 123.47 11.8896 123.49 11.7217C125.08 11.7217 130.485 11.7217 133.251 11.7217C133.607 11.7074 133.961 11.7794 134.283 11.9315C134.409 12.0214 134.519 12.1313 134.61 12.2568L135.319 13.2256V9.96588L109.466 9.97288Z" fill="#12463A"/>
<path d="M27.1154 42.5181C26.2419 42.1787 25.3279 41.9587 24.3973 41.864C24.3973 41.5143 24.3526 14.6562 24.3561 12.1799C24.3709 11.7814 24.4181 11.3848 24.4971 10.9942C24.535 10.7913 24.5694 10.5885 24.5969 10.3821L24.6588 9.92391H21.9614L22.0199 10.3786C22.0474 10.6059 22.0853 10.8193 22.1197 11.0257C22.193 11.3897 22.2356 11.7595 22.247 12.1309C22.247 15.0724 22.247 32.3121 22.1988 33.3998C22.1757 34.5485 21.8879 35.6757 21.3585 36.6907C20.8291 37.7058 20.0728 38.5804 19.1504 39.2443C17.8407 40.2736 16.3217 40.9929 14.7039 41.3499C13.0862 41.7069 11.4105 41.6926 9.79885 41.3079C7.54181 40.8008 5.82839 39.8809 4.55536 38.5098C3.09655 36.9149 2.40842 34.8548 2.40842 32.2071C2.40842 28.3318 2.40842 12.1799 2.40842 12.1799C2.42158 11.7812 2.46878 11.3845 2.54949 10.9942C2.5839 10.7913 2.6183 10.5885 2.64927 10.3821L2.7112 9.92391H0L0.0584903 10.3786C0.0825746 10.5885 0.116981 10.7948 0.151387 11.0047C0.226264 11.4134 0.269975 11.8273 0.28213 12.2428C0.295892 20.9868 0.306214 31.4097 0.306214 31.4097C0.306214 32.2421 0.333739 32.9906 0.385348 33.6971C0.657156 37.6214 2.54949 40.444 6.00386 42.0914C8.83548 43.4345 12.0043 43.7422 15.4277 43.0078C17.3826 42.583 19.2089 41.6883 20.7537 40.3985C21.2952 39.9534 21.7857 39.4477 22.216 38.8911V40.5559C22.1948 41.0381 22.1419 41.5184 22.0577 41.9934C22.0199 42.2348 21.982 42.4761 21.9545 42.693L21.896 43.1756H23.4649C27.0053 43.417 29.5066 46.5508 29.5066 50.1918C29.5066 53.9413 26.7542 56.9002 23.0142 56.9002C19.2743 56.9002 15.6857 54.0742 15.4449 50.1009V49.6672H14.2648V50.0974C14.3102 52.4253 15.2518 54.6424 16.8873 56.2724C18.5229 57.9024 20.722 58.8154 23.0125 58.8154C25.3029 58.8154 27.5021 57.9024 29.1377 56.2724C30.7732 54.6424 31.7148 52.4253 31.7602 50.0974C31.8062 47.9988 31.0359 45.9665 29.6167 44.4418C28.9013 43.6554 28.0544 43.0041 27.1154 42.5181Z" fill="#12463A"/>
<path d="M190.266 31.8959C189.715 28.825 187.744 26.6495 184.416 25.4882C183.959 25.3248 183.49 25.1996 183.013 25.114C181.547 24.9007 177.146 24.9321 175.918 24.9181C175.918 21.2212 175.935 11.7357 175.946 11.6622H185.387C186.168 11.6622 186.656 11.6832 187.069 12.2428L187.778 13.2117V10.0183H176.18H173.482L173.541 10.473C173.568 10.7004 173.606 10.9137 173.64 11.1201C173.694 11.4104 173.73 11.7035 173.751 11.998C173.751 12.04 173.751 40.9197 173.751 40.9791C173.726 41.3289 173.671 41.7136 173.613 42.0879C173.579 42.3117 173.541 42.5391 173.517 42.7524L173.458 43.2036H173.933C173.933 43.2036 179.276 43.2281 179.799 43.2036C180.813 43.2095 181.825 43.1252 182.823 42.9518C188.27 41.9165 191.25 37.464 190.266 31.8959ZM187.936 36.9149C187.317 39.0694 185.782 40.4475 183.25 41.133C182.474 41.343 181.676 41.4604 180.873 41.4828C179.627 41.5178 178.395 41.5108 177.088 41.5038H175.939C175.911 41.2729 175.891 41.0491 175.884 40.8252V26.5935C178.08 26.5139 180.279 26.5841 182.466 26.8033C182.514 26.8033 187.052 27.1286 188.112 32.3016C188.429 33.8311 188.365 35.4169 187.926 36.9149H187.936Z" fill="#12463A"/>
<path d="M46.634 39.8984L45.9252 40.8672C45.8349 40.9934 45.7244 41.1034 45.5984 41.1925C45.2756 41.3449 44.9218 41.4169 44.5662 41.4024H33.9553V26.8593C35.5346 26.8593 41.3871 26.8593 44.0157 26.8593C44.5271 26.8915 45.0285 27.0183 45.4951 27.2336L46.0628 27.5099V24.453L45.4917 24.7398C45.0257 24.9607 44.5194 25.0798 44.0054 25.0895C41.1462 25.114 35.4967 25.0895 33.9553 25.0895V11.7217H44.5421C44.8977 11.7071 45.2515 11.7791 45.5743 11.9315C45.7003 12.0207 45.8108 12.1306 45.9011 12.2568L46.6099 13.2256V9.97987H31.5091L31.5641 10.4311C31.5882 10.6479 31.6226 10.8648 31.6536 11.0816C31.7309 11.5124 31.7757 11.9485 31.7878 12.3862C31.8061 21.8344 31.8061 31.278 31.7878 40.7168C31.7759 41.1626 31.7311 41.6069 31.6536 42.0459C31.6192 42.2698 31.5882 42.4901 31.5607 42.7105L31.5091 43.1581H46.6237L46.634 39.8984Z" fill="#12463A"/>
</svg>
