<svg width="21" height="24" viewBox="0 0 21 24" fill="none" xmlns="http://www.w3.org/2000/svg">
<path d="M16.5 6C16.5 2.71875 13.7812 0 10.5 0C7.17188 0 4.5 2.71875 4.5 6H0V20.25C0 22.3594 1.64062 24 3.75 24H17.25C19.3125 24 21 22.3594 21 20.25V6H16.5ZM10.5 1.5C12.9375 1.5 15 3.5625 15 6H6C6 3.5625 8.01562 1.5 10.5 1.5ZM19.5 20.25C19.5 21.5156 18.4688 22.5 17.25 22.5H3.75C2.48438 22.5 1.5 21.5156 1.5 20.25V7.5H4.5V9.75C4.5 10.1719 4.82812 10.5 5.25 10.5C5.625 10.5 6 10.1719 6 9.75V7.5H15V9.75C15 10.1719 15.3281 10.5 15.75 10.5C16.125 10.5 16.5 10.1719 16.5 9.75V7.5H19.5V20.25Z" fill="#151212"/>
</svg>
